<?xml version="1.0" encoding="UTF-8" standalone="no"?>
<svg
   xmlns:dc="http://purl.org/dc/elements/1.1/"
   xmlns:cc="http://creativecommons.org/ns#"
   xmlns:rdf="http://www.w3.org/1999/02/22-rdf-syntax-ns#"
   xmlns:svg="http://www.w3.org/2000/svg"
   xmlns="http://www.w3.org/2000/svg"
   xmlns:sodipodi="http://sodipodi.sourceforge.net/DTD/sodipodi-0.dtd"
   xmlns:inkscape="http://www.inkscape.org/namespaces/inkscape"
   width="71.25148mm"
   height="33.222221mm"
   viewBox="0 0 71.25148 33.222221"
   version="1.1"
   id="svg1370"
   inkscape:version="1.0 (4035a4fb49, 2020-05-01)"
   sodipodi:docname="ECT_horiz.svg">
  <defs
     id="defs1364" />
  <sodipodi:namedview
     id="base"
     pagecolor="#ffffff"
     bordercolor="#666666"
     borderopacity="1.0"
     inkscape:pageopacity="0.0"
     inkscape:pageshadow="2"
     inkscape:zoom="1.4"
     inkscape:cx="59.497328"
     inkscape:cy="126.61619"
     inkscape:document-units="pt"
     inkscape:current-layer="layer1"
     inkscape:document-rotation="0"
     showgrid="false"
     fit-margin-top="5"
     fit-margin-left="0"
     fit-margin-right="0"
     fit-margin-bottom="0"
     lock-margins="false" />
  <metadata
     id="metadata1367">
    <rdf:RDF>
      <cc:Work
         rdf:about="">
        <dc:format>image/svg+xml</dc:format>
        <dc:type
           rdf:resource="http://purl.org/dc/dcmitype/StillImage" />
        <dc:title></dc:title>
      </cc:Work>
    </rdf:RDF>
  </metadata>
  <g
     inkscape:label="Layer 1"
     inkscape:groupmode="layer"
     id="layer1"
     transform="translate(-71.940648,-130.40542)">
    <g
       id="g1332"
       transform="matrix(0.3801638,0,0,-0.3801638,65.145564,228.33801)">
      <path
         d="m 46.2138,206.8155 c -2.9665,-3.9501 -17.6238,-26.0178 -1.9043,-17.1233 6.1727,3.4932 11.685,7.7046 17.4719,13.2143 9.2058,8.7384 18.0989,18.9847 24.389,29.8678 2.8006,5.9366 0.9519,7.8046 -6.6994,3.2831 -5.9763,-4.0383 -11.6793,-8.9986 -16.4469,-13.4955 -0.1344,0.144 -0.1877,0.1916 -0.3458,0.3356 5.7611,5.9111 12.3485,12.1638 19.1831,16.312 6.8347,4.1482 11.1606,2.4285 7.6751,-5.1982 -5.7004,-12.6666 -19.7603,-26.6116 -26.0277,-32.8725 -12.8341,-12.8194 -24.537,-18.5664 -28.1922,-17.0059 -5.1418,2.1949 7.9608,19.9293 10.432,23.0899 0.1698,-0.1485 0.2886,-0.2409 0.4652,-0.4073"
         style="fill:#d7b513;fill-opacity:1;fill-rule:evenodd;stroke:none"
         id="path430" />
      <path
         d="m 55.2574,200.2935 c -14.0014,9.3064 -20.9474,18.4453 -28.2217,29.3091 -6.5086,10.5134 -4.2072,17.8608 5.6446,13.6392 9.8521,-4.2222 26.0765,-15.2612 39.2616,-29.2895 l -2.5895,-2.8908 c -9.7455,11.0775 -36.1749,33.0973 -42.2864,29.3831 -8.3066,-5.0485 21.1034,-35.5009 28.1914,-40.1511"
         style="fill:#3972b4;fill-opacity:1;fill-rule:evenodd;stroke:none"
         id="path432" />
      <path
         d="m 75.6677,204.3808 2.7046,3.0382 c 2.234,-2.3188 11.0557,-13.546 14.7628,-22.4833 2.8452,-6.8593 2.3295,-11.7825 -4.5462,-9.9201 -6.0701,1.6443 -18.1502,9.9745 -26.2315,16.1192 0.0805,0.0844 0.2817,0.2806 0.3662,0.3651 3.9297,-2.6127 18.3167,-11.2425 19.4604,-11.8157 6.5571,-3.2774 10.4315,-3.9095 8.5757,2.0872 -1.6685,5.5641 -9.2634,16.4576 -15.092,22.6094"
         style="fill:#3972b4;fill-opacity:1;fill-rule:evenodd;stroke:none"
         id="path434" />
      <path
         d="m 20.4367,226.7957 c -3.098,4.9009 -3.3092,9.4372 -1.0542,11.1598 1.9902,1.5196 6.0434,0.6208 9.7004,-0.9066 8.875,-3.7065 25.4871,-15.5936 37.5083,-28.8799 -0.9119,-0.915 -1.5667,-1.6367 -2.5427,-2.5517 -10.6718,11.952 -23.409,22.9081 -35.3616,28.5704 -20.9458,7.8519 3.0368,-21.051 9.3047,-28.1903 -0.1213,-0.1463 -0.0499,-0.1004 -0.4124,-0.6163 -8.1819,8.7812 -11.3108,12.1893 -17.1425,21.4146"
         style="fill:#99d420;fill-opacity:1;fill-rule:evenodd;stroke:none"
         id="path436" />
      <path
         d="m 69.7601,197.9595 2.6319,2.7431 c 5.4102,-6.8256 10.4576,-13.6798 12.5881,-20.7675 3.3806,-17.7072 -26.1255,4.2035 -28.0902,6.3672 l 0.3552,0.2817 c 8.5255,-6.4545 14.8184,-10.0173 20.0602,-11.048 3.553,-0.6625 6.0636,-0.1936 4.3319,4.8155 -1.7427,4.6465 -5.9553,10.675 -11.8771,17.608"
         style="fill:#99d420;fill-opacity:1;fill-rule:evenodd;stroke:none"
         id="path438" />
      <path
         d="M 98.5329,235.8034 C 77.7552,210.6074 58.015,189.8748 44.6318,182.6731 c -13.3832,-7.2017 -19.6484,-7.5614 -16.674,1.6112 2.9744,9.1723 14.7626,26.4078 19.0211,32.5944 -6.9704,-6.2007 -46.5835,-62.8304 -6.8154,-42.1353 24.2436,14.7731 41.4236,35.9808 58.3694,61.06"
         style="fill:#5dbbd7;fill-opacity:1;fill-rule:evenodd;stroke:none"
         id="path440" />
      <path
         d="m 102.5311,243.9615 c 1.3074,0 2.3675,-1.0857 2.3675,-2.4242 0,-1.3391 -1.0601,-2.4247 -2.3675,-2.4247 -1.307,0 -2.3675,1.0856 -2.3675,2.4247 0,1.3385 1.0605,2.4242 2.3675,2.4242"
         style="fill:#d7b513;fill-opacity:1;fill-rule:evenodd;stroke:none"
         id="path442" />
      <path
         d="m 116.6873,229.5935 c -0.4694,0.3977 -0.9473,0.6897 -1.4388,0.8796 -0.4916,0.1905 -1.0072,0.2855 -1.5492,0.2855 -1.2225,0 -2.2144,-0.3804 -2.9789,-1.1393 -0.7642,-0.7611 -1.1458,-1.7515 -1.1458,-2.9707 0,-0.6142 0.0927,-1.1653 0.2801,-1.654 0.1871,-0.4909 0.4734,-0.9255 0.8569,-1.3062 0.3773,-0.3719 0.8107,-0.6528 1.3,-0.8475 0.4893,-0.1942 1.0114,-0.2917 1.571,-0.2917 0.5422,0 1.0731,0.0907 1.5888,0.2724 0.5156,0.1817 1.0046,0.4498 1.4652,0.8042 v -0.9879 c -0.4649,-0.2792 -0.9564,-0.4932 -1.4737,-0.6423 -0.5202,-0.1491 -1.0338,-0.2248 -1.5407,-0.2248 -0.6851,0 -1.3396,0.121 -1.963,0.3608 -0.6236,0.2401 -1.159,0.5797 -1.6066,1.0143 -0.4601,0.4475 -0.8088,0.9663 -1.0463,1.5567 -0.2358,0.5922 -0.3546,1.2411 -0.3546,1.946 0,0.692 0.121,1.3383 0.3654,1.9372 0.2426,0.6013 0.593,1.1177 1.0488,1.5523 0.443,0.4263 0.9762,0.7614 1.6044,1.0009 0.6256,0.2401 1.2756,0.3611 1.9519,0.3611 0.6015,0 1.1591,-0.0819 1.6747,-0.244 0.5134,-0.1625 0.9825,-0.4065 1.4035,-0.7308 z m 3.3455,-7.5761 v 9.273 h 0.8592 v -9.273 z m 4.7004,0 v 9.273 h 4.68 v -0.7912 h -3.8205 v -2.9015 h 3.8205 v -0.7915 h -3.8205 v -3.9974 h 3.8205 v -0.7914 z m 0.4652,10.1857 1.3748,2.2161 h 0.9428 l 1.3751,-2.2161 h -0.595 l -1.245,1.5829 -1.258,-1.5829 z m 7.8046,-10.1857 v 9.6667 l 6.6943,-7.7601 v 7.3664 h 0.7996 v -9.5454 l -6.6875,7.7726 v -7.5002 z m 18.9278,7.5761 c -0.4689,0.3977 -0.9474,0.6897 -1.4383,0.8796 -0.4916,0.1905 -1.0072,0.2855 -1.5492,0.2855 -1.2231,0 -2.2147,-0.3804 -2.9792,-1.1393 -0.7645,-0.7611 -1.1457,-1.7515 -1.1457,-2.9707 0,-0.6142 0.0927,-1.1653 0.2797,-1.654 0.1874,-0.4909 0.4737,-0.9255 0.8572,-1.3062 0.3768,-0.3719 0.811,-0.6528 1.3,-0.8475 0.4893,-0.1942 1.0114,-0.2917 1.5713,-0.2917 0.5419,0 1.0729,0.0907 1.5885,0.2724 0.5153,0.1817 1.0046,0.4498 1.4652,0.8042 v -0.9879 c -0.4649,-0.2792 -0.9561,-0.4932 -1.4743,-0.6423 -0.5199,-0.1491 -1.0332,-0.2248 -1.54,-0.2248 -0.6852,0 -1.3397,0.121 -1.963,0.3608 -0.6237,0.2401 -1.1591,0.5797 -1.6064,1.0143 -0.4604,0.4475 -0.8088,0.9663 -1.0469,1.5567 -0.2355,0.5922 -0.3546,1.2411 -0.3546,1.946 0,0.692 0.1213,1.3383 0.366,1.9372 0.242,0.6013 0.5927,1.1177 1.0488,1.5523 0.4428,0.4263 0.976,0.7614 1.6038,1.0009 0.6259,0.2401 1.2756,0.3611 1.9523,0.3611 0.6017,0 1.159,-0.0819 1.6744,-0.244 0.5136,-0.1625 0.983,-0.4065 1.4037,-0.7308 z m 3.3454,-7.5761 v 9.273 h 0.8595 v -9.273 z m 5.8244,3.8636 h 3.2918 l -1.6151,4.0346 z m -2.4149,-3.8636 4.1514,9.6406 3.975,-9.6406 h -0.9366 l -1.2053,3.1413 H 160.81 l -1.2515,-3.1413 z m 9.9491,1.5588 0.7381,0.3869 c 0.1366,-0.4558 0.3745,-0.8087 0.7118,-1.0616 0.3393,-0.2506 0.7447,-0.3761 1.218,-0.3761 0.5976,0 1.0647,0.1729 1.3995,0.519 0.337,0.3458 0.5046,0.8257 0.5046,1.4377 0,0.4476 -0.1123,0.8192 -0.3393,1.1157 -0.2248,0.2937 -0.7118,0.6378 -1.4542,1.0248 -0.9519,0.4952 -1.5843,0.9297 -1.8992,1.3059 -0.3152,0.3761 -0.472,0.828 -0.472,1.3558 0,0.6573 0.2273,1.1931 0.6812,1.6084 0.4541,0.4133 1.042,0.6205 1.7671,0.6205 0.4714,0 0.8855,-0.097 1.2359,-0.294 0.3504,-0.1967 0.635,-0.4929 0.8549,-0.8844 l -0.6653,-0.3932 c -0.1366,0.2659 -0.3328,0.4692 -0.5839,0.6072 -0.2511,0.1409 -0.5488,0.2098 -0.8946,0.2098 -0.4649,0 -0.8348,-0.1338 -1.1103,-0.402 -0.2753,-0.2681 -0.4122,-0.6293 -0.4122,-1.0854 0,-0.6508 0.5465,-1.2563 1.6393,-1.8184 0.1984,-0.1017 0.3481,-0.1794 0.4518,-0.2333 0.8042,-0.4368 1.3419,-0.8475 1.6129,-1.2325 0.271,-0.3872 0.4074,-0.8886 0.4074,-1.5049 0,-0.8325 -0.2466,-1.4919 -0.7424,-1.9806 -0.4958,-0.4864 -1.1679,-0.7307 -2.0206,-0.7307 -0.621,0 -1.15,0.1511 -1.593,0.4538 -0.4405,0.3008 -0.7864,0.7526 -1.0355,1.3516"
         style="fill:#5dbbd7;fill-opacity:1;fill-rule:nonzero;stroke:none"
         id="path444" />
      <path
         d="m 195.0934,206.5723 4.0577,9.0674 3.8852,-9.0674 h -0.9153 l -1.1786,2.9548 h -3.7727 l -1.2234,-2.9548 z m 2.3601,3.6343 h 3.2184 l -1.5794,3.7941 z"
         style="fill:#5dbbd7;fill-opacity:1;fill-rule:nonzero;stroke:none"
         id="path446" />
      <path
         d="m 191.8729,206.5717 v 8.7225 h 0.8396 v -8.7225 z"
         style="fill:#5dbbd7;fill-opacity:1;fill-rule:nonzero;stroke:none"
         id="path448" />
      <path
         d="m 187.5475,213.1021 c -0.3724,0.5468 -0.8334,0.9618 -1.3807,1.2445 -0.5465,0.2826 -1.1628,0.4229 -1.8474,0.4229 -1.1457,0 -2.0761,-0.366 -2.7955,-1.0959 -0.7194,-0.7302 -1.0791,-1.6781 -1.0791,-2.8412 0,-0.5204 0.0952,-1.0105 0.2865,-1.472 0.1917,-0.462 0.472,-0.8708 0.836,-1.2285 0.3702,-0.3521 0.7857,-0.6183 1.2424,-0.7951 0.4586,-0.1772 0.9626,-0.2645 1.5097,-0.2645 1.0335,0 1.8757,0.2886 2.526,0.8643 0.6483,0.5757 0.9825,1.3277 0.9992,2.2572 h -3.185 v 0.6854 h 4.1071 v -0.0958 c 0,-1.389 -0.4028,-2.4766 -1.2061,-3.2638 -0.8034,-0.7869 -1.908,-1.1795 -3.3166,-1.1795 -1.402,0 -2.5347,0.4209 -3.4024,1.2628 -0.866,0.8422 -1.2988,1.9463 -1.2988,3.3132 0,0.6281 0.1097,1.22 0.3271,1.7793 0.22,0.557 0.5343,1.0431 0.9476,1.4561 0.4456,0.4493 0.9499,0.7849 1.51,1.0066 0.5619,0.2217 1.1886,0.3334 1.8777,0.3334 0.9368,0 1.7399,-0.1608 2.41,-0.4799 0.6673,-0.3192 1.1843,-0.7892 1.546,-1.4094 z"
         style="fill:#5dbbd7;fill-opacity:1;fill-rule:nonzero;stroke:none"
         id="path450" />
      <path
         d="m 176.783,210.9161 c 0,-0.6169 -0.1253,-1.2002 -0.3719,-1.7547 -0.2481,-0.5542 -0.6058,-1.048 -1.0735,-1.4814 -0.4757,-0.4368 -1.0111,-0.7682 -1.6107,-0.9986 -0.5969,-0.2271 -1.2299,-0.341 -1.8932,-0.341 -0.6656,0 -1.296,0.1139 -1.8905,0.341 -0.5972,0.2304 -1.1313,0.5618 -1.6024,0.9986 -0.4711,0.4411 -0.8294,0.9377 -1.0749,1.4877 -0.2477,0.5496 -0.3702,1.1315 -0.3702,1.7484 0,0.6239 0.1225,1.2118 0.3702,1.7674 0.2455,0.5533 0.6038,1.0513 1.0749,1.4921 0.4629,0.4309 0.9927,0.7608 1.5852,0.9819 0.5944,0.2228 1.2293,0.3331 1.9077,0.3331 0.6811,0 1.3195,-0.1103 1.9162,-0.3362 0.5953,-0.2239 1.1256,-0.5516 1.5877,-0.9788 0.4719,-0.4408 0.8297,-0.9388 1.0771,-1.4921 0.2458,-0.5556 0.3683,-1.1435 0.3683,-1.7674 z m -4.9493,-3.8665 c 0.5468,0 1.0638,0.0953 1.5534,0.2874 0.4886,0.1885 0.9275,0.4675 1.3198,0.8337 0.3835,0.3679 0.6763,0.7892 0.881,1.2583 0.2044,0.472 0.3058,0.9658 0.3058,1.4871 0,0.5244 -0.1014,1.0193 -0.3036,1.4856 -0.2032,0.4669 -0.4957,0.8875 -0.8832,1.2592 -0.3838,0.3659 -0.8201,0.6454 -1.3113,0.8348 -0.4887,0.1907 -1.0103,0.286 -1.5619,0.286 -0.5488,0 -1.0636,-0.0953 -1.5477,-0.286 -0.4848,-0.1894 -0.9224,-0.4689 -1.3142,-0.8348 -0.3875,-0.3759 -0.68,-0.7972 -0.8827,-1.2592 -0.2018,-0.4626 -0.3033,-0.9567 -0.3033,-1.4856 0,-0.5244 0.1015,-1.0191 0.3033,-1.4871 0.2027,-0.466 0.4952,-0.8867 0.8827,-1.2583 0.3878,-0.3702 0.8201,-0.648 1.3005,-0.8376 0.4802,-0.1891 1.0015,-0.2835 1.5614,-0.2835"
         style="fill:#5dbbd7;fill-opacity:1;fill-rule:nonzero;stroke:none"
         id="path452" />
      <path
         d="m 161.1125,206.5717 v 8.7225 h 0.8399 v -7.9779 h 3.1657 v -0.7446 z"
         style="fill:#5dbbd7;fill-opacity:1;fill-rule:nonzero;stroke:none"
         id="path454" />
      <path
         d="m 157.9181,210.9161 c 0,-0.6169 -0.1247,-1.2002 -0.3733,-1.7547 -0.2469,-0.5542 -0.6055,-1.048 -1.0718,-1.4814 -0.4762,-0.4368 -1.0131,-0.7682 -1.6121,-0.9986 -0.5955,-0.2271 -1.2282,-0.341 -1.8921,-0.341 -0.665,0 -1.2957,0.1139 -1.891,0.341 -0.5964,0.2304 -1.1307,0.5618 -1.6018,0.9986 -0.4723,0.4411 -0.8294,0.9377 -1.0744,1.4877 -0.2483,0.5496 -0.3716,1.1315 -0.3716,1.7484 0,0.6239 0.1233,1.2118 0.3716,1.7674 0.245,0.5533 0.6021,1.0513 1.0744,1.4921 0.4629,0.4309 0.9924,0.7608 1.5848,0.9819 0.5944,0.2228 1.23,0.3331 1.908,0.3331 0.6801,0 1.3204,-0.1103 1.9145,-0.3362 0.597,-0.2239 1.1262,-0.5516 1.5897,-0.9788 0.4711,-0.4408 0.8286,-0.9388 1.0763,-1.4921 0.2452,-0.5556 0.3688,-1.1435 0.3688,-1.7674 z m -4.9493,-3.8665 c 0.5474,0 1.0641,0.0953 1.5523,0.2874 0.4901,0.1885 0.9295,0.4675 1.3209,0.8337 0.383,0.3679 0.6755,0.7892 0.8805,1.2583 0.2041,0.472 0.3052,0.9658 0.3052,1.4871 0,0.5244 -0.1011,1.0193 -0.3027,1.4856 -0.203,0.4669 -0.4955,0.8875 -0.883,1.2592 -0.3835,0.3659 -0.8209,0.6454 -1.311,0.8348 -0.4904,0.1907 -1.01,0.286 -1.5622,0.286 -0.5491,0 -1.063,-0.0953 -1.5491,-0.286 -0.4833,-0.1894 -0.9213,-0.4689 -1.313,-0.8348 -0.3867,-0.3759 -0.6809,-0.7972 -0.8833,-1.2592 -0.2024,-0.4626 -0.3027,-0.9567 -0.3027,-1.4856 0,-0.5244 0.1003,-1.0191 0.3027,-1.4871 0.2024,-0.466 0.4966,-0.8867 0.8833,-1.2583 0.3875,-0.3702 0.8206,-0.648 1.3005,-0.8376 0.4808,-0.1891 1.0021,-0.2835 1.5616,-0.2835"
         style="fill:#5dbbd7;fill-opacity:1;fill-rule:nonzero;stroke:none"
         id="path456" />
      <path
         d="m 137.4965,206.5717 v 9.0927 l 6.5429,-7.2987 v 6.9285 h 0.7815 v -8.9785 l -6.5364,7.3111 v -7.0551 z"
         style="fill:#5dbbd7;fill-opacity:1;fill-rule:nonzero;stroke:none"
         id="path458" />
      <path
         d="m 134.3384,213.698 c -0.4589,0.3742 -0.9261,0.6486 -1.4063,0.8274 -0.4802,0.1792 -0.9842,0.2685 -1.5142,0.2685 -1.1951,0 -2.164,-0.3575 -2.9115,-1.0715 -0.7475,-0.7158 -1.1197,-1.6473 -1.1197,-2.7944 0,-0.5774 0.0902,-1.0962 0.2736,-1.5557 0.1828,-0.4617 0.4626,-0.8705 0.8373,-1.2282 0.3682,-0.3498 0.7926,-0.6143 1.2708,-0.7974 0.4779,-0.1831 0.9887,-0.2744 1.5358,-0.2744 0.5295,0 1.0485,0.0853 1.5525,0.256 0.504,0.1709 0.9822,0.4232 1.4324,0.7568 v -0.9295 c -0.4547,-0.2622 -0.9346,-0.4637 -1.4412,-0.604 -0.5082,-0.1404 -1.0099,-0.2115 -1.5052,-0.2115 -0.6698,0 -1.3096,0.1137 -1.9187,0.3396 -0.6095,0.2259 -1.133,0.5451 -1.5699,0.9538 -0.4501,0.421 -0.7905,0.9091 -1.0233,1.4641 -0.2304,0.557 -0.3466,1.1676 -0.3466,1.8304 0,0.6508 0.1184,1.2588 0.3574,1.8221 0.2367,0.5655 0.5797,1.0516 1.025,1.4601 0.4331,0.4008 0.9542,0.716 1.5679,0.9417 0.6117,0.2256 1.2472,0.3396 1.9082,0.3396 0.5879,0 1.133,-0.0771 1.6368,-0.2296 0.502,-0.1528 0.9606,-0.3824 1.3719,-0.6874 z"
         style="fill:#5dbbd7;fill-opacity:1;fill-rule:nonzero;stroke:none"
         id="path460" />
      <path
         d="m 118.9477,206.5717 v 8.7225 h 4.5745 v -0.7441 h -3.7346 v -2.7292 h 3.7346 v -0.7444 h -3.7346 v -3.7602 h 3.7346 v -0.7446 z"
         style="fill:#5dbbd7;fill-opacity:1;fill-rule:nonzero;stroke:none"
         id="path462" />
      <path
         d="m 112.8263,206.5717 v 7.9784 h -2.5433 v 0.7441 h 5.9329 v -0.7441 h -2.5497 v -7.9784 z"
         style="fill:#5dbbd7;fill-opacity:1;fill-rule:nonzero;stroke:none"
         id="path464" />
      <path
         d="m 193.1193,225.0181 c -1.4763,1.2141 -2.6938,2.4781 -3.6519,3.788 -0.0195,0.0139 -0.125,0.0493 -0.3166,0.1057 -0.2871,-0.1412 -0.5082,-0.2404 -0.6613,-0.2971 -0.0193,-0.1133 -0.1151,-0.2693 -0.2877,-0.4671 l -0.2013,0.0635 c -0.1916,-0.0284 -0.3353,-0.1627 -0.4314,-0.4034 -0.1148,-0.2834 -0.2968,-0.4816 -0.5463,-0.595 l -0.1726,0.0641 c -0.1919,-0.3118 -0.3161,-0.5454 -0.3736,-0.701 l -0.1437,0.0425 c -0.1344,-0.1698 -0.3549,-0.3753 -0.6616,-0.616 l 0.0286,-0.17 c -0.0193,-0.099 -0.1293,-0.2903 -0.3308,-0.5735 -0.2013,-0.2829 -0.3019,-0.538 -0.3019,-0.7645 0,-0.2265 0.1103,-0.4354 0.3308,-0.6265 0.2203,-0.1913 0.4935,-0.2939 0.8195,-0.3081 l 0.2299,0.0425 c 0.0961,-0.0107 0.1826,-0.0388 0.2591,-0.0853 h 0.3739 c 1.5528,0 3.566,0.4992 6.0389,1.5012 z m 8.3684,5.0622 c 0,-0.0709 -0.4121,-0.6089 -1.2367,-1.6144 -0.3067,-0.1698 -0.8816,-0.7361 -1.7249,-1.6988 l 0.0284,0.0848 -0.0284,0.0847 -0.432,-0.3821 0.0578,-0.1485 c -0.1726,-0.1131 -0.4314,-0.2761 -0.7764,-0.4887 -0.1343,-0.0425 -0.2684,-0.0989 -0.4025,-0.1701 -0.0578,-0.1978 -0.2015,-0.375 -0.4317,-0.5309 -0.3833,-0.0423 -0.5749,-0.1772 -0.5749,-0.4037 0,-0.1414 0.2396,-0.3503 0.7189,-0.6264 0.4793,-0.2758 0.7571,-0.5276 0.8339,-0.754 l -0.0289,-0.0848 0.2302,-0.106 0.1437,0.0847 c 0.1341,-0.0569 0.2206,-0.1346 0.2591,-0.2338 l -0.0292,-0.106 c 0.0196,-0.0706 0.2781,-0.1911 0.7767,-0.3612 l 1.2076,-1.2529 c -0.038,-0.0992 -0.0859,-0.1633 -0.1435,-0.1913 -0.2494,0.0567 -0.8532,0.3044 -1.8116,0.7435 l -0.1726,-0.0213 c -1.6679,0.9488 -3.0198,1.7275 -4.0547,2.3361 0.038,-0.0139 0.1437,-0.0709 0.3161,-0.1698 l -0.8337,-0.5097 -0.1729,-0.0428 -0.2299,0.0428 c -0.1344,-0.085 -0.2685,-0.1771 -0.4028,-0.2761 -0.7475,-0.3399 -1.4281,-0.5805 -2.0418,-0.7222 l -0.2872,0.0853 c -0.1729,-0.0145 -0.3308,-0.0675 -0.4745,-0.1596 -0.144,-0.0919 -0.2353,-0.1378 -0.2732,-0.1378 l -0.3167,0.1486 -0.6037,-0.1486 h -0.1148 c -0.0961,0 -0.1778,0.0247 -0.2447,0.0743 -0.0672,0.0493 -0.1199,0.0743 -0.1579,0.0743 l -0.2015,-0.1486 c -0.1916,0.099 -0.3833,0.1486 -0.5752,0.1486 -0.0192,0 -0.0575,0 -0.115,0 -0.1341,0 -0.3643,0.0847 -0.69,0.2545 -1.8408,0.4958 -2.7609,1.3419 -2.7609,2.5455 0,1.1007 1.4762,2.8993 4.4285,5.3878 -0.479,1.2563 -0.7188,2.092 -0.7188,2.5025 0,0.2797 0.2205,0.6692 0.6616,1.1647 0.4983,0.5525 1.0638,0.9771 1.6962,1.2745 0.3266,0.1661 0.6423,0.3432 0.9491,0.5275 0.7863,0.3396 1.7736,0.5734 2.9622,0.7007 l 0.3452,-0.0638 0.2299,0.0638 c 0.4983,-0.057 1.1886,-0.4246 2.0704,-1.1046 0.3067,-0.1982 0.6231,-0.4037 0.9488,-0.6157 0.3265,-0.2123 0.4895,-0.4391 0.4895,-0.6798 0,-0.1698 -0.0768,-0.3115 -0.2304,-0.4246 -0.2109,-0.1134 -0.4122,-0.2339 -0.6038,-0.3614 -1.3998,-0.7926 -2.2337,-1.1892 -2.5019,-1.1892 -0.0192,0 -0.0289,0.007 -0.0289,0.0213 v 0.0425 c -0.1151,-0.0141 -0.2202,-0.0779 -0.316,-0.1913 -0.1534,-0.1698 -0.2492,-0.269 -0.2878,-0.2974 -0.2494,-0.0425 -0.604,-0.1981 -1.0641,-0.4674 -0.0383,-0.0845 -0.0672,-0.1553 -0.0862,-0.212 l 0.0287,-0.0638 c -0.2872,-0.0992 -0.5845,-0.2974 -0.8912,-0.5947 -0.5179,-0.1701 -0.7764,-0.3612 -0.7764,-0.5735 0,-0.1131 0.1048,-0.1698 0.316,-0.1698 0.4028,-0.6514 0.6038,-0.9703 0.6038,-0.9561 v -0.021 l -0.0573,-0.191 0.1151,-0.0428 0.0576,0.0215 c 0.0768,-0.1984 0.2922,-0.4606 0.6471,-0.786 0.3543,-0.3254 0.8002,-0.8283 1.3371,-1.5083 0.364,-0.4669 0.652,-0.7005 0.8626,-0.7005 0.0575,0 0.1437,0.0493 0.2588,0.1486 l 0.2302,-0.0638 c 0.0385,0.1417 0.2585,0.3328 0.6613,0.5737 0.5176,0.2974 1.0259,0.5876 1.5242,0.8708 v -0.0641 l 0.0862,-0.0637 c 0.0765,0.0286 0.163,0.0782 0.259,0.1488 l -0.1437,0.0638 c 0.2679,0.1839 0.69,0.4884 1.2648,0.9133 l 0.173,-0.0638 0.0572,0.1276 v 0.0425 h 0.0576 l 0.1151,-0.0425 c 0.5366,0.4957 1.1599,1.0973 1.8694,1.8054 z m -6.5279,5.0762 c -0.6134,-0.0425 -0.9297,-0.0637 -0.949,-0.0637 -0.1723,0 -0.2877,0.0212 -0.3453,0.0637 h -0.0575 c -0.1534,0 -0.3112,-0.0459 -0.4742,-0.138 -0.163,-0.0921 -0.2827,-0.1381 -0.3598,-0.1381 l -0.1148,0.1061 c -0.0768,-0.0709 -0.1723,-0.1273 -0.2877,-0.1698 l -0.0861,0.0212 c -0.0766,-0.0283 -0.1531,-0.0742 -0.2299,-0.138 -0.0769,-0.0638 -0.1344,-0.0958 -0.1727,-0.0958 -0.0382,0 -0.0958,0.0215 -0.1726,0.0637 -0.3835,-0.0847 -1.0063,-0.4246 -1.8692,-1.0196 -0.1726,-0.0706 -0.441,-0.2265 -0.8053,-0.4668 0.345,-0.7368 0.6616,-1.126 0.9488,-1.1685 l 0.288,0.0641 c 0.0955,0.1803 0.5558,0.5306 1.3804,1.0477 1.1118,0.6831 2.2142,1.3626 3.3069,2.0318"
         style="fill:#d7b513;fill-opacity:1;fill-rule:nonzero;stroke:none"
         id="path466" />
      <path
         d="m 107.1366,200.7295 h 98.1606 v -0.6971 h -98.1606 z"
         style="fill:#3972b4;fill-opacity:1;fill-rule:evenodd;stroke:none"
         id="path468" />
      <path
         d="m 110.9169,194.2727 h 1.4604 v -4.5629 c 0,-0.6908 0.369,-1.2042 1.1029,-1.5398 0.7345,-0.3359 1.8604,-0.5034 3.3741,-0.5034 1.4953,0 2.6096,0.1675 3.3435,0.5034 0.7344,0.3356 1.1032,0.849 1.1032,1.5398 v 4.5629 h 1.4837 v -4.3577 c 0,-0.9448 -0.4907,-1.6523 -1.4721,-2.118 -0.9813,-0.466 -2.465,-0.699 -4.4583,-0.699 -1.997,0 -3.4841,0.233 -4.4654,0.699 -0.9817,0.4657 -1.472,1.1732 -1.472,2.118 z m 29.008,-6.9891 v 6.9891 h 8.0796 v -0.5964 h -6.5965 v -2.1869 h 6.3527 v -0.5964 h -6.3527 v -3.6094 z m 26.0714,6.435 v -2.583 h 1.4947 c 1.381,0 2.3434,0.095 2.891,0.2838 0.544,0.1907 0.8178,0.5116 0.8178,0.9677 0,0.4811 -0.2814,0.8212 -0.8481,1.0253 -0.5629,0.2035 -1.5177,0.3062 -2.8607,0.3062 z m 8.4257,-6.435 h -1.8071 l -5.7283,3.3321 h -0.8903 v -3.3321 h -1.4834 v 6.9891 h 2.9974 c 1.7688,0 3.0926,-0.1581 3.975,-0.4728 0.8784,-0.3144 1.3198,-0.7917 1.3198,-1.4323 0,-0.544 -0.3764,-0.9726 -1.1299,-1.2839 -0.7568,-0.3115 -1.7955,-0.468 -3.115,-0.468 z m 15.2909,0 v 7.2856 l 11.5563,-5.8481 v 5.5516 h 1.3808 v -7.1943 l -11.5447,5.8578 v -5.6526 z"
         style="fill:#d7b513;fill-opacity:1;fill-rule:nonzero;stroke:none"
         id="path470" />
    </g>
  </g>
</svg>
