<?xml version="1.0" encoding="UTF-8" standalone="no"?>
<svg
   xmlns:dc="http://purl.org/dc/elements/1.1/"
   xmlns:cc="http://creativecommons.org/ns#"
   xmlns:rdf="http://www.w3.org/1999/02/22-rdf-syntax-ns#"
   xmlns:svg="http://www.w3.org/2000/svg"
   xmlns="http://www.w3.org/2000/svg"
   xmlns:sodipodi="http://sodipodi.sourceforge.net/DTD/sodipodi-0.dtd"
   xmlns:inkscape="http://www.inkscape.org/namespaces/inkscape"
   inkscape:version="1.0 (4035a4fb49, 2020-05-01)"
   sodipodi:docname="ECT_UFRN.svg"
   viewBox="0 0 2576.919 1076.0188"
   height="1076.0188"
   width="2576.9189"
   xml:space="preserve"
   id="svg852"
   version="1.1"><metadata
     id="metadata858"><rdf:RDF><cc:Work
         rdf:about=""><dc:format>image/svg+xml</dc:format><dc:type
           rdf:resource="http://purl.org/dc/dcmitype/StillImage" /><dc:title></dc:title></cc:Work></rdf:RDF></metadata><defs
     id="defs856" /><sodipodi:namedview
     inkscape:current-layer="g860"
     inkscape:cy="425.74608"
     inkscape:cx="1389.1349"
     inkscape:zoom="0.35839921"
     fit-margin-bottom="360"
     fit-margin-right="360"
     fit-margin-top="360"
     lock-margins="true"
     fit-margin-left="360"
     inkscape:snap-others="false"
     inkscape:snap-nodes="false"
     inkscape:bbox-nodes="true"
     inkscape:snap-bbox-edge-midpoints="true"
     inkscape:bbox-paths="true"
     inkscape:snap-bbox="true"
     inkscape:object-paths="true"
     inkscape:guide-bbox="true"
     showguides="true"
     showgrid="false"
     id="namedview854"
     inkscape:window-height="480"
     inkscape:window-width="640"
     inkscape:pageshadow="2"
     inkscape:pageopacity="0"
     guidetolerance="10"
     gridtolerance="10"
     objecttolerance="10"
     borderopacity="1"
     bordercolor="#666666"
     pagecolor="#ffffff" /><g
     transform="matrix(1.3333333,0,0,-1.3333333,1093.1511,894.1734)"
     inkscape:label="UFRN_flat"
     inkscape:groupmode="layer"
     id="g860"><g
       id="g1581"><path
         id="path864"
         style="fill:#05a1e6;fill-opacity:1;fill-rule:nonzero;stroke:none;stroke-width:0.1"
         d="m 345.023,275.79 c -2.54,-24.16 -10.782,-42.479 -24.723,-54.95 -13.946,-12.478 -37.42,-18.712 -70.42,-18.712 -33.48,0 -56.186,5.92 -68.126,17.763 -11.94,11.843 -16.574,30.475 -13.901,55.899 l 9.236,87.876 h 50.45 l -9.236,-87.876 c -1.426,-13.581 0.768,-24.242 6.588,-31.976 5.817,-7.738 14.489,-11.605 26.02,-11.605 11.05,0 20.705,3.59 28.962,10.775 8.254,7.184 13.155,18.121 14.698,32.806 l 9.238,87.876 h 50.45" /><path
         id="path866"
         style="fill:#05a1e6;fill-opacity:1;fill-rule:nonzero;stroke:none;stroke-width:0.1"
         d="m 596.342,316.056 c 0.531,5.053 -1.779,9.393 -6.922,13.028 -5.145,3.632 -10.796,5.447 -16.952,5.447 h -33.636 l -4.034,-38.371 h 34.108 c 7.259,0 13.483,1.736 18.668,5.212 5.18,3.471 8.103,8.368 8.768,14.684 M 639.953,205.917 H 585.95 l 0.99,45.477 c -0.477,2.998 -1.564,5.803 -3.261,8.408 -1.703,2.606 -4.269,4.857 -7.702,6.752 -5.055,0 -13.483,0.154 -25.292,0.473 -11.81,0.315 -18.113,0.472 -18.899,0.472 l -6.472,-61.582 h -50.451 l 16.581,157.75 h 104.452 c 14.211,0 27.056,-3.636 38.529,-10.896 11.476,-7.267 16.506,-17.61 15.098,-31.029 -0.963,-9.161 -5.025,-16.977 -12.178,-23.449 -7.155,-6.477 -16.008,-11.056 -26.549,-13.738 l -0.2,-1.896 c 4.056,-0.474 8.06,-1.42 12.016,-2.841 3.956,-1.421 7.951,-2.947 10.751,-5.922 6.084,-6.468 5.455,-16.424 5.774,-19.423" /><path
         id="path868"
         style="fill:#05a1e6;fill-opacity:1;fill-rule:nonzero;stroke:none;stroke-width:0.1"
         d="M 826.247,205.917 H 757.793 L 697.254,312.74 686.027,205.917 h -47.135 l 16.579,157.75 h 71.769 l 57.473,-104.456 10.977,104.456 h 47.136" /><path
         id="path870"
         style="fill:#254aa5;fill-opacity:1;fill-rule:nonzero;stroke:none;stroke-width:0.1"
         d="m 159.992,192.67 h 2.778 l -2.243,-13.482 c -0.095,-0.535 -0.167,-1.042 -0.216,-1.525 -0.046,-0.479 -0.07,-0.901 -0.07,-1.265 0,-0.969 0.255,-1.725 0.762,-2.269 0.51,-0.54 1.224,-0.81 2.147,-0.81 1.19,0 2.088,0.425 2.693,1.275 0.604,0.85 1.11,2.526 1.517,5.034 l 2.168,13.042 h 2.802 l -2.243,-13.331 c -0.015,-0.13 -0.052,-0.343 -0.104,-0.634 -0.419,-2.529 -0.926,-4.363 -1.527,-5.508 -0.513,-1.01 -1.232,-1.769 -2.164,-2.282 -0.929,-0.511 -2.052,-0.766 -3.364,-0.766 -1.679,0 -3.009,0.514 -3.992,1.54 -0.981,1.026 -1.473,2.41 -1.473,4.147 0,0.498 0.025,1.041 0.079,1.639 0.052,0.595 0.128,1.224 0.234,1.88" /><path
         id="path872"
         style="fill:#254aa5;fill-opacity:1;fill-rule:nonzero;stroke:none;stroke-width:0.1"
         d="m 172.868,170.59 3.716,22.08 h 3.821 l 5.363,-17.696 2.971,17.696 h 2.779 l -3.693,-22.08 h -3.637 l -5.492,18.23 -3.051,-18.23" /><path
         id="path874"
         style="fill:#254aa5;fill-opacity:1;fill-rule:nonzero;stroke:none;stroke-width:0.1"
         d="m 191.86,170.59 3.68,22.08 h 2.778 l -3.68,-22.08 z" /><path
         id="path876"
         style="fill:#254aa5;fill-opacity:1;fill-rule:nonzero;stroke:none;stroke-width:0.1"
         d="m 199.899,192.67 h 2.805 l 2.478,-18.471 8.306,18.471 h 3.027 l -10.174,-22.08 h -3.339" /><path
         id="path878"
         style="fill:#254aa5;fill-opacity:1;fill-rule:nonzero;stroke:none;stroke-width:0.1"
         d="m 214.73,170.59 3.68,22.08 h 9.806 l -0.535,-3.109 h -7.028 l -1.017,-6.293 h 7.004 l -0.483,-3.018 h -7.019 l -1.095,-6.491 h 6.991 l -0.507,-3.169" /><path
         id="path880"
         style="fill:#254aa5;fill-opacity:1;fill-rule:nonzero;stroke:none;stroke-width:0.1"
         d="m 228.622,170.59 3.679,22.08 h 4.812 c 2.226,0 3.947,-0.571 5.164,-1.712 1.218,-1.142 1.828,-2.757 1.828,-4.84 0,-2.022 -0.559,-3.685 -1.676,-4.987 -1.117,-1.306 -2.641,-2.065 -4.572,-2.274 l 3.874,-8.267 h -3.09 l -5.089,10.844 h 0.483 c 2.723,0.031 4.444,0.288 5.164,0.774 0.601,0.404 1.072,0.935 1.409,1.6 0.34,0.662 0.51,1.382 0.51,2.159 0,1.163 -0.343,2.067 -1.023,2.717 -0.683,0.647 -1.643,0.968 -2.878,0.968 -0.346,0 -0.747,-0.009 -1.199,-0.03 -0.453,-0.018 -0.936,-0.049 -1.449,-0.091 L 231.4,170.59" /><path
         id="path882"
         style="fill:#254aa5;fill-opacity:1;fill-rule:nonzero;stroke:none;stroke-width:0.1"
         d="m 245.463,177.642 h 2.919 c 0,-0.082 -0.002,-0.185 -0.011,-0.312 -0.009,-0.125 -0.012,-0.219 -0.012,-0.28 0,-1.263 0.243,-2.216 0.729,-2.86 0.488,-0.64 1.214,-0.962 2.18,-0.962 0.903,0 1.651,0.34 2.243,1.017 0.589,0.677 0.887,1.53 0.887,2.562 0,0.729 -0.146,1.342 -0.437,1.843 -0.292,0.501 -0.933,1.096 -1.925,1.782 -0.156,0.112 -0.395,0.273 -0.717,0.486 -1.227,0.798 -2.125,1.536 -2.699,2.213 -0.419,0.507 -0.732,1.072 -0.941,1.7 -0.206,0.625 -0.313,1.314 -0.313,2.061 0,1.792 0.541,3.273 1.618,4.451 1.078,1.178 2.444,1.767 4.096,1.767 1.591,0 2.841,-0.507 3.756,-1.524 0.912,-1.014 1.369,-2.404 1.369,-4.162 0,-0.182 -0.003,-0.322 -0.007,-0.416 -0.003,-0.097 -0.012,-0.185 -0.018,-0.267 h -2.832 c 0,0.051 0.006,0.124 0.015,0.221 0.006,0.095 0.012,0.167 0.012,0.219 0,0.919 -0.222,1.651 -0.665,2.192 -0.443,0.54 -1.039,0.811 -1.789,0.811 -0.718,0 -1.339,-0.295 -1.851,-0.887 -0.513,-0.592 -0.768,-1.297 -0.768,-2.116 0,-1.154 1.08,-2.462 3.244,-3.929 0.448,-0.303 0.791,-0.54 1.034,-0.713 0.886,-0.616 1.575,-1.412 2.066,-2.386 0.493,-0.978 0.739,-2.032 0.739,-3.164 0,-1.94 -0.589,-3.57 -1.762,-4.89 -1.175,-1.321 -2.634,-1.98 -4.384,-1.98 -1.86,0 -3.287,0.601 -4.282,1.806 -0.996,1.202 -1.494,2.93 -1.494,5.186" /><path
         id="path884"
         style="fill:#254aa5;fill-opacity:1;fill-rule:nonzero;stroke:none;stroke-width:0.1"
         d="m 258.888,170.59 3.678,22.08 h 2.779 l -3.68,-22.08 z" /><path
         id="path886"
         style="fill:#254aa5;fill-opacity:1;fill-rule:nonzero;stroke:none;stroke-width:0.1"
         d="m 274.24,189.728 h -2.75 l -2.675,-16.182 h 3.339 c 2.408,0 4.348,0.85 5.817,2.548 1.47,1.7 2.204,3.934 2.204,6.703 0,2.246 -0.507,3.962 -1.521,5.149 -1.011,1.19 -2.483,1.782 -4.414,1.782 m -8.646,-19.138 3.652,22.08 h 4.994 c 2.781,0 4.939,-0.838 6.47,-2.517 1.53,-1.679 2.295,-4.038 2.295,-7.083 0,-3.77 -0.99,-6.794 -2.966,-9.068 -1.98,-2.274 -4.609,-3.412 -7.885,-3.412" /><path
         id="path888"
         style="fill:#254aa5;fill-opacity:1;fill-rule:nonzero;stroke:none;stroke-width:0.1"
         d="m 294.888,180.007 -1.409,9.281 -4.224,-9.281 z m -13.004,-9.417 10.422,22.08 h 3.171 l 3.846,-22.08 h -2.882 l -1.071,6.339 h -7.524 L 284.9,170.59" /><path
         id="path890"
         style="fill:#254aa5;fill-opacity:1;fill-rule:nonzero;stroke:none;stroke-width:0.1"
         d="m 309.238,189.728 h -2.75 l -2.675,-16.182 h 3.34 c 2.407,0 4.347,0.85 5.816,2.548 1.47,1.7 2.204,3.934 2.204,6.703 0,2.246 -0.507,3.962 -1.521,5.149 -1.011,1.19 -2.483,1.782 -4.414,1.782 m -8.646,-19.138 3.652,22.08 h 4.994 c 2.781,0 4.939,-0.838 6.47,-2.517 1.53,-1.679 2.295,-4.038 2.295,-7.083 0,-3.77 -0.99,-6.794 -2.966,-9.068 -1.98,-2.274 -4.609,-3.412 -7.884,-3.412" /><path
         id="path892"
         style="fill:#254aa5;fill-opacity:1;fill-rule:nonzero;stroke:none;stroke-width:0.1"
         d="m 319.336,170.59 3.678,22.08 h 9.807 l -0.534,-3.109 h -7.028 l -1.017,-6.293 h 7.004 l -0.483,-3.018 h -7.019 l -1.096,-6.491 h 6.991 l -0.507,-3.169" /><path
         id="path894"
         style="fill:#254aa5;fill-opacity:1;fill-rule:nonzero;stroke:none;stroke-width:0.1"
         d="m 355.535,376.816 -1.383,-13.148 h 137.284 l 1.383,13.148 z" /><path
         id="path896"
         style="fill:#254aa5;fill-opacity:1;fill-rule:nonzero;stroke:none;stroke-width:0.1"
         d="m 439.91,180.007 h 5.631 l -1.408,9.282" /><path
         id="path898"
         style="fill:#254aa5;fill-opacity:1;fill-rule:nonzero;stroke:none;stroke-width:0.1"
         d="m 384.462,189.729 h -2.75 l -2.675,-16.183 h 3.339 c 2.408,0 4.348,0.852 5.817,2.547 1.47,1.702 2.204,3.936 2.204,6.703 0,2.247 -0.507,3.963 -1.521,5.15 -1.011,1.19 -2.483,1.783 -4.414,1.783" /><path
         id="path900"
         style="fill:#254aa5;fill-opacity:1;fill-rule:nonzero;stroke:none;stroke-width:0.1"
         d="m 463.952,170.589 h -9.181 l 3.677,22.081 h 2.805 l -3.142,-18.911 h 6.375 z m -16.855,0 -1.072,6.34 h -7.523 l -2.948,-6.34 h -3.015 l 10.422,22.081 h 3.17 l 3.846,-22.081 z m -17.895,10.541 c -1.117,-1.306 -2.641,-2.065 -4.571,-2.274 l 3.873,-8.267 h -3.09 l -5.088,10.845 h 0.482 c 2.724,0.03 4.445,0.288 5.165,0.775 0.601,0.402 1.071,0.934 1.408,1.6 0.34,0.661 0.51,1.381 0.51,2.157 0,1.163 -0.343,2.068 -1.023,2.718 -0.683,0.646 -1.643,0.968 -2.878,0.968 -0.346,0 -0.747,-0.009 -1.199,-0.03 -0.453,-0.018 -0.935,-0.049 -1.448,-0.092 l -3.17,-18.941 h -2.778 l 3.68,22.081 h 4.812 c 2.225,0 3.946,-0.571 5.164,-1.713 1.217,-1.141 1.828,-2.757 1.828,-4.839 0,-2.022 -0.559,-3.684 -1.677,-4.988 m -18.221,8.431 h -7.028 l -1.017,-6.293 h 7.004 l -0.483,-3.018 h -7.019 l -1.096,-6.491 h 6.991 l -0.506,-3.17 h -9.797 l 3.679,22.081 h 9.806 z m -20.72,-15.559 c -1.979,-2.273 -4.609,-3.413 -7.885,-3.413 h -6.56 l 3.652,22.081 h 4.994 c 2.781,0 4.94,-0.839 6.469,-2.518 1.531,-1.678 2.296,-4.037 2.296,-7.082 0,-3.771 -0.99,-6.795 -2.966,-9.068 m -18.835,15.559 h -7.028 l -1.017,-6.293 h 7.004 l -0.483,-3.018 h -7.019 l -1.096,-6.491 h 6.992 l -0.508,-3.17 h -9.797 l 3.68,22.081 h 9.806 z m -16.934,0 h -7.028 l -1.017,-6.293 h 7.003 l -0.482,-3.018 h -7.019 l -1.631,-9.661 h -2.778 l 3.68,22.081 h 9.806 z m 43.225,109.443 h 79.21 l -3.365,-31.977 h -79.21 l -6.432,-61.109 h -50.354 l -5.098,-48.488 h 137.284 l 18.372,174.733 h -86.917" /><path
         id="path902"
         style="fill:#254aa5;fill-opacity:1;fill-rule:nonzero;stroke:none;stroke-width:0.1"
         d="m 486.369,189.728 h -2.75 l -2.675,-16.182 h 3.34 c 2.407,0 4.347,0.85 5.816,2.548 1.47,1.7 2.204,3.934 2.204,6.703 0,2.246 -0.507,3.962 -1.521,5.149 -1.011,1.19 -2.483,1.782 -4.414,1.782 m -8.646,-19.138 3.652,22.08 h 4.994 c 2.781,0 4.939,-0.838 6.47,-2.517 1.53,-1.679 2.295,-4.038 2.295,-7.083 0,-3.77 -0.99,-6.794 -2.966,-9.068 -1.98,-2.274 -4.609,-3.412 -7.884,-3.412" /><path
         id="path904"
         style="fill:#254aa5;fill-opacity:1;fill-rule:nonzero;stroke:none;stroke-width:0.1"
         d="m 500.249,180.311 c 0,-2.213 0.549,-3.983 1.651,-5.307 1.099,-1.326 2.563,-1.988 4.387,-1.988 2.253,0 4.099,0.916 5.538,2.753 1.439,1.834 2.158,4.208 2.158,7.12 0,2.246 -0.546,4.028 -1.636,5.346 -1.093,1.32 -2.559,1.979 -4.402,1.979 -2.244,0 -4.087,-0.923 -5.532,-2.769 -1.441,-1.842 -2.164,-4.222 -2.164,-7.134 m -2.83,-0.122 c 0,1.953 0.27,3.738 0.814,5.362 0.543,1.624 1.333,3.015 2.368,4.177 0.993,1.115 2.119,1.956 3.385,2.526 1.266,0.571 2.651,0.856 4.154,0.856 2.634,0 4.738,-0.919 6.314,-2.759 1.572,-1.84 2.358,-4.296 2.358,-7.372 0,-1.484 -0.163,-2.886 -0.494,-4.208 -0.331,-1.32 -0.813,-2.514 -1.448,-3.585 -0.956,-1.608 -2.189,-2.854 -3.698,-3.74 -1.509,-0.883 -3.163,-1.326 -4.964,-1.326 -2.677,0 -4.812,0.91 -6.402,2.728 -1.591,1.822 -2.387,4.269 -2.387,7.341" /><path
         id="path906"
         style="fill:#254aa5;fill-opacity:1;fill-rule:nonzero;stroke:none;stroke-width:0.1"
         d="m 526.337,170.59 3.68,22.08 h 4.811 c 2.226,0 3.947,-0.571 5.164,-1.712 1.218,-1.142 1.828,-2.757 1.828,-4.84 0,-2.022 -0.559,-3.685 -1.676,-4.987 -1.118,-1.306 -2.641,-2.065 -4.572,-2.274 l 3.873,-8.267 h -3.089 l -5.089,10.844 h 0.483 c 2.723,0.031 4.444,0.288 5.164,0.774 0.601,0.404 1.071,0.935 1.408,1.6 0.34,0.662 0.51,1.382 0.51,2.159 0,1.163 -0.343,2.067 -1.022,2.717 -0.684,0.647 -1.643,0.968 -2.878,0.968 -0.347,0 -0.747,-0.009 -1.199,-0.03 -0.454,-0.018 -0.936,-0.049 -1.449,-0.091 l -3.17,-18.941" /><path
         id="path908"
         style="fill:#254aa5;fill-opacity:1;fill-rule:nonzero;stroke:none;stroke-width:0.1"
         d="m 542.709,170.59 3.68,22.08 h 2.778 l -3.68,-22.08 z" /><path
         id="path910"
         style="fill:#254aa5;fill-opacity:1;fill-rule:nonzero;stroke:none;stroke-width:0.1"
         d="m 553.223,180.311 c 0,-2.213 0.55,-3.983 1.651,-5.307 1.1,-1.326 2.563,-1.988 4.387,-1.988 2.253,0 4.099,0.916 5.538,2.753 1.439,1.834 2.158,4.208 2.158,7.12 0,2.246 -0.546,4.028 -1.635,5.346 -1.094,1.32 -2.56,1.979 -4.403,1.979 -2.244,0 -4.087,-0.923 -5.531,-2.769 -1.442,-1.842 -2.165,-4.222 -2.165,-7.134 m -2.829,-0.122 c 0,1.953 0.269,3.738 0.813,5.362 0.543,1.624 1.333,3.015 2.369,4.177 0.992,1.115 2.119,1.956 3.384,2.526 1.266,0.571 2.651,0.856 4.154,0.856 2.634,0 4.739,-0.919 6.314,-2.759 1.572,-1.84 2.359,-4.296 2.359,-7.372 0,-1.484 -0.164,-2.886 -0.495,-4.208 -0.331,-1.32 -0.813,-2.514 -1.448,-3.585 -0.956,-1.608 -2.188,-2.854 -3.697,-3.74 -1.51,-0.883 -3.164,-1.326 -4.964,-1.326 -2.678,0 -4.813,0.91 -6.403,2.728 -1.591,1.822 -2.386,4.269 -2.386,7.341" /><path
         id="path912"
         style="fill:#254aa5;fill-opacity:1;fill-rule:nonzero;stroke:none;stroke-width:0.1"
         d="m 596.218,178.659 h -8.662 l 0.483,2.775 h 11.597 c -0.358,-3.449 -1.49,-6.196 -3.4,-8.243 -1.907,-2.049 -4.292,-3.072 -7.153,-3.072 -2.738,0 -4.903,0.923 -6.487,2.769 -1.588,1.846 -2.381,4.359 -2.381,7.544 0,1.73 0.255,3.364 0.769,4.906 0.512,1.542 1.248,2.899 2.204,4.071 0.983,1.214 2.116,2.128 3.397,2.748 1.284,0.616 2.687,0.922 4.207,0.922 2.323,0 4.217,-0.649 5.687,-1.948 1.469,-1.3 2.477,-3.206 3.027,-5.723 h -2.964 c -0.397,1.545 -1.093,2.732 -2.079,3.561 -0.987,0.832 -2.201,1.245 -3.646,1.245 -2.207,0 -4.05,-0.923 -5.529,-2.769 -1.478,-1.843 -2.216,-4.171 -2.216,-6.983 0,-2.256 0.552,-4.059 1.661,-5.413 1.108,-1.357 2.578,-2.034 4.402,-2.034 1.582,0 3.021,0.516 4.317,1.548 1.296,1.03 2.219,2.396 2.766,4.096" /><path
         id="path914"
         style="fill:#254aa5;fill-opacity:1;fill-rule:nonzero;stroke:none;stroke-width:0.1"
         d="m 600.875,170.59 3.679,22.08 h 4.812 c 2.226,0 3.947,-0.571 5.164,-1.712 1.218,-1.142 1.827,-2.757 1.827,-4.84 0,-2.022 -0.558,-3.685 -1.675,-4.987 -1.118,-1.306 -2.641,-2.065 -4.573,-2.274 l 3.874,-8.267 h -3.089 l -5.089,10.844 h 0.483 c 2.723,0.031 4.444,0.288 5.164,0.774 0.601,0.404 1.071,0.935 1.408,1.6 0.34,0.662 0.51,1.382 0.51,2.159 0,1.163 -0.343,2.067 -1.022,2.717 -0.684,0.647 -1.643,0.968 -2.878,0.968 -0.347,0 -0.747,-0.009 -1.199,-0.03 -0.454,-0.018 -0.936,-0.049 -1.449,-0.091 l -3.17,-18.941" /><path
         id="path916"
         style="fill:#254aa5;fill-opacity:1;fill-rule:nonzero;stroke:none;stroke-width:0.1"
         d="m 627.551,180.007 -1.408,9.281 -4.223,-9.281 z m -13.002,-9.417 10.422,22.08 h 3.17 l 3.846,-22.08 h -2.881 l -1.072,6.339 h -7.523 l -2.947,-6.339" /><path
         id="path918"
         style="fill:#254aa5;fill-opacity:1;fill-rule:nonzero;stroke:none;stroke-width:0.1"
         d="m 633.568,170.59 3.716,22.08 h 3.823 l 5.361,-17.696 2.973,17.696 h 2.777 l -3.691,-22.08 h -3.638 l -5.491,18.23 -3.052,-18.23" /><path
         id="path920"
         style="fill:#254aa5;fill-opacity:1;fill-rule:nonzero;stroke:none;stroke-width:0.1"
         d="m 661.18,189.728 h -2.75 l -2.675,-16.182 h 3.34 c 2.407,0 4.348,0.85 5.816,2.548 1.47,1.7 2.205,3.934 2.205,6.703 0,2.246 -0.507,3.962 -1.521,5.149 -1.012,1.19 -2.483,1.782 -4.415,1.782 m -8.646,-19.138 3.653,22.08 h 4.993 c 2.781,0 4.939,-0.838 6.47,-2.517 1.53,-1.679 2.296,-4.038 2.296,-7.083 0,-3.77 -0.991,-6.794 -2.967,-9.068 -1.98,-2.274 -4.609,-3.412 -7.884,-3.412" /><path
         id="path922"
         style="fill:#254aa5;fill-opacity:1;fill-rule:nonzero;stroke:none;stroke-width:0.1"
         d="m 671.278,170.59 3.679,22.08 h 9.807 l -0.535,-3.109 h -7.027 l -1.018,-6.293 h 7.004 l -0.483,-3.018 h -7.019 l -1.095,-6.491 h 6.991 l -0.507,-3.169" /><path
         id="path924"
         style="fill:#254aa5;fill-opacity:1;fill-rule:nonzero;stroke:none;stroke-width:0.1"
         d="m 702.105,189.728 h -2.751 l -2.675,-16.182 h 3.34 c 2.407,0 4.348,0.85 5.817,2.548 1.469,1.7 2.205,3.934 2.205,6.703 0,2.246 -0.508,3.962 -1.522,5.149 -1.011,1.19 -2.483,1.782 -4.414,1.782 m -8.646,-19.138 3.652,22.08 h 4.994 c 2.781,0 4.939,-0.838 6.47,-2.517 1.53,-1.679 2.295,-4.038 2.295,-7.083 0,-3.77 -0.991,-6.794 -2.966,-9.068 -1.98,-2.274 -4.609,-3.412 -7.885,-3.412" /><path
         id="path926"
         style="fill:#254aa5;fill-opacity:1;fill-rule:nonzero;stroke:none;stroke-width:0.1"
         d="m 715.982,180.311 c 0,-2.213 0.55,-3.983 1.651,-5.307 1.1,-1.326 2.563,-1.988 4.388,-1.988 2.252,0 4.098,0.916 5.537,2.753 1.438,1.834 2.158,4.208 2.158,7.12 0,2.246 -0.546,4.028 -1.635,5.346 -1.094,1.32 -2.56,1.979 -4.403,1.979 -2.243,0 -4.087,-0.923 -5.532,-2.769 -1.441,-1.842 -2.164,-4.222 -2.164,-7.134 m -2.829,-0.122 c 0,1.953 0.268,3.738 0.813,5.362 0.543,1.624 1.333,3.015 2.369,4.177 0.992,1.115 2.119,1.956 3.384,2.526 1.266,0.571 2.651,0.856 4.154,0.856 2.634,0 4.739,-0.919 6.314,-2.759 1.572,-1.84 2.359,-4.296 2.359,-7.372 0,-1.484 -0.164,-2.886 -0.495,-4.208 -0.331,-1.32 -0.813,-2.514 -1.448,-3.585 -0.957,-1.608 -2.188,-2.854 -3.697,-3.74 -1.51,-0.883 -3.164,-1.326 -4.964,-1.326 -2.678,0 -4.813,0.91 -6.403,2.728 -1.591,1.822 -2.386,4.269 -2.386,7.341" /><path
         id="path928"
         style="fill:#254aa5;fill-opacity:1;fill-rule:nonzero;stroke:none;stroke-width:0.1"
         d="m 742.361,170.59 3.716,22.08 h 3.821 l 5.363,-17.696 2.971,17.696 h 2.779 l -3.693,-22.08 h -3.636 l -5.493,18.23 -3.051,-18.23" /><path
         id="path930"
         style="fill:#254aa5;fill-opacity:1;fill-rule:nonzero;stroke:none;stroke-width:0.1"
         d="m 765.136,180.311 c 0,-2.213 0.55,-3.983 1.652,-5.307 1.099,-1.326 2.562,-1.988 4.387,-1.988 2.253,0 4.099,0.916 5.537,2.753 1.44,1.834 2.159,4.208 2.159,7.12 0,2.246 -0.547,4.028 -1.636,5.346 -1.093,1.32 -2.56,1.979 -4.403,1.979 -2.243,0 -4.086,-0.923 -5.531,-2.769 -1.442,-1.842 -2.165,-4.222 -2.165,-7.134 m -2.829,-0.122 c 0,1.953 0.27,3.738 0.813,5.362 0.544,1.624 1.333,3.015 2.369,4.177 0.993,1.115 2.119,1.956 3.384,2.526 1.267,0.571 2.651,0.856 4.154,0.856 2.635,0 4.739,-0.919 6.314,-2.759 1.573,-1.84 2.359,-4.296 2.359,-7.372 0,-1.484 -0.164,-2.886 -0.495,-4.208 -0.331,-1.32 -0.813,-2.514 -1.448,-3.585 -0.956,-1.608 -2.188,-2.854 -3.697,-3.74 -1.509,-0.883 -3.163,-1.326 -4.964,-1.326 -2.678,0 -4.812,0.91 -6.402,2.728 -1.591,1.822 -2.387,4.269 -2.387,7.341" /><path
         id="path932"
         style="fill:#254aa5;fill-opacity:1;fill-rule:nonzero;stroke:none;stroke-width:0.1"
         d="m 782.915,170.59 3.679,22.08 h 4.812 c 2.226,0 3.947,-0.571 5.164,-1.712 1.217,-1.142 1.827,-2.757 1.827,-4.84 0,-2.022 -0.558,-3.685 -1.675,-4.987 -1.118,-1.306 -2.641,-2.065 -4.573,-2.274 l 3.874,-8.267 h -3.09 l -5.088,10.844 h 0.482 c 2.724,0.031 4.445,0.288 5.165,0.774 0.601,0.404 1.071,0.935 1.408,1.6 0.34,0.662 0.51,1.382 0.51,2.159 0,1.163 -0.343,2.067 -1.022,2.717 -0.684,0.647 -1.643,0.968 -2.879,0.968 -0.346,0 -0.746,-0.009 -1.199,-0.03 -0.453,-0.018 -0.935,-0.049 -1.448,-0.091 l -3.17,-18.941" /><path
         id="path934"
         style="fill:#254aa5;fill-opacity:1;fill-rule:nonzero;stroke:none;stroke-width:0.1"
         d="m 801.907,170.59 3.186,19.032 h -4.175 l 0.507,3.048 h 10.957 l -0.507,-3.048 h -4.005 l -3.182,-19.032" /><path
         id="path936"
         style="fill:#254aa5;fill-opacity:1;fill-rule:nonzero;stroke:none;stroke-width:0.1"
         d="m 811.234,170.59 3.68,22.08 h 9.805 l -0.534,-3.109 h -7.028 l -1.018,-6.293 h 7.005 l -0.482,-3.018 h -7.02 l -1.096,-6.491 h 6.992 l -0.508,-3.169" /></g><path
       id="path1542"
       d="M 90.484173,400.52553 62.441829,133.72048"
       style="fill:none;fill-rule:evenodd;stroke:#0095db;stroke-width:2;stroke-linecap:butt;stroke-linejoin:miter;stroke-miterlimit:4;stroke-dasharray:none;stroke-opacity:1" /><g
       id="g1721"><path
         d="m -467.4061,265.6098 c -8.63133,-11.49321 -51.27822,-75.7014 -5.54076,-49.82196 17.96009,10.16382 33.99868,22.41731 50.83625,38.44833 26.7852,25.42525 52.66056,55.23789 70.96224,86.90336 8.14863,17.27314 2.76965,22.70827 -19.49257,9.55251 -17.38865,-11.74984 -33.9821,-26.18233 -47.85391,-39.26651 -0.39105,0.41898 -0.54613,0.55748 -1.00614,0.97646 16.7625,17.19894 35.9292,35.3918 55.81515,47.4614 19.88625,12.06961 32.47289,7.06597 22.33148,-15.12468 -16.58589,-36.85474 -57.49458,-77.42912 -75.73021,-95.64584 -37.3421,-37.29933 -71.39286,-54.0208 -82.02803,-49.48037 -14.96058,6.38628 23.16275,57.9863 30.35295,67.18238 0.49405,-0.43207 0.83971,-0.70092 1.35355,-1.18508"
         style="fill:#05a1e6;fill-opacity:1;fill-rule:evenodd;stroke:none;stroke-width:2.9096"
         id="path430" /><path
         d="m -441.09284,246.63339 c -40.73848,27.0779 -60.94856,53.66845 -82.11387,85.27776 -18.93742,30.5898 -12.24127,51.96779 16.42353,39.68462 28.66567,-12.28491 75.87219,-44.40399 114.23556,-85.22073 l -7.53441,-8.41108 c -28.35551,32.2311 -105.2545,96.29992 -123.03652,85.49308 -24.16888,-14.68912 61.40246,-103.29343 82.02571,-116.82365"
         style="fill:#05a1e6;fill-opacity:1;fill-rule:evenodd;stroke:none;stroke-width:2.9096"
         id="path432" /><path
         d="m -381.70703,258.5258 7.86931,8.83994 c 6.50004,-6.74678 32.16767,-39.41344 42.95384,-65.41741 8.2784,-19.95782 6.77792,-34.28237 -13.22762,-28.86353 -17.66156,4.78426 -52.80983,29.02181 -76.32318,46.90043 0.23422,0.24557 0.81963,0.81644 1.0655,1.0623 11.43385,-7.60192 53.29427,-32.71118 56.62198,-34.37897 19.07854,-9.53592 30.3515,-11.37508 24.95186,6.07292 -4.85467,16.18931 -26.95279,47.88504 -43.91169,65.78432"
         style="fill:#05a1e6;fill-opacity:1;fill-rule:evenodd;stroke:none;stroke-width:2.9096"
         id="path434" /><path
         d="m -542.40716,323.7442 c -9.01394,14.25966 -9.62845,27.45848 -3.0673,32.47055 5.79068,4.42143 17.58388,1.80628 28.22428,-2.63784 25.82271,-10.78443 74.15728,-45.37114 109.13417,-84.02897 -2.65327,-2.66228 -4.55848,-4.76214 -7.39825,-7.42442 -31.05067,34.77554 -68.11083,66.65341 -102.88812,83.12844 -60.9439,22.84589 8.83588,-61.24999 27.07296,-82.0225 -0.35293,-0.42568 -0.14519,-0.29213 -1.19992,-1.79319 -23.80606,25.54978 -32.90991,35.46599 -49.87782,62.30793"
         style="fill:#05a1e6;fill-opacity:1;fill-rule:evenodd;stroke:none;stroke-width:2.9096"
         id="path436" /><path
         d="m -398.89578,239.84238 7.65777,7.98133 c 15.74152,-19.85977 30.42744,-39.80276 36.62634,-60.42513 9.8362,-51.52087 -76.01476,12.23051 -81.73125,18.52601 l 1.03349,0.81963 c 24.8058,-18.78001 43.11562,-29.14634 58.36716,-32.14526 10.33781,-1.92761 17.64266,-0.5633 12.6041,14.01118 -5.07056,13.51946 -17.32754,31.05998 -34.55761,51.23224"
         style="fill:#05a1e6;fill-opacity:1;fill-rule:evenodd;stroke:none;stroke-width:2.9096"
         id="path438" /><path
         d="m -315.17843,349.953 c -60.45481,-73.31029 -117.8909,-133.63386 -156.83066,-154.58793 -38.93976,-20.95407 -57.16899,-22.00066 -48.51468,4.68794 8.65432,26.68773 42.95327,76.83615 55.3438,94.83668 -20.28108,-18.04156 -135.53936,-182.81135 -19.83009,-122.59688 70.53919,42.98382 120.52612,104.68975 169.83163,177.66019"
         style="fill:#05a1e6;fill-opacity:1;fill-rule:evenodd;stroke:none;stroke-width:2.9096"
         id="path440" /><path
         d="m -303.54527,373.68981 c 3.80401,0 6.88848,-3.15895 6.88848,-7.05345 0,-3.89625 -3.08447,-7.05491 -6.88848,-7.05491 -3.80285,0 -6.88848,3.15866 -6.88848,7.05491 0,3.8945 3.08563,7.05345 6.88848,7.05345"
         style="fill:#05a1e6;fill-opacity:1;fill-rule:evenodd;stroke:none;stroke-width:2.9096"
         id="path442" /><path
         d="m -262.35639,331.88468 c -1.36576,1.15714 -2.75626,2.00675 -4.18633,2.55928 -1.43036,0.55428 -2.93055,0.83069 -4.50755,0.83069 -3.55699,0 -6.44302,-1.10681 -8.66741,-3.31491 -2.22352,-2.21449 -3.33382,-5.09616 -3.33382,-8.64355 0,-1.78707 0.26972,-3.39055 0.81498,-4.81247 0.54438,-1.42833 1.3774,-2.69284 2.49323,-3.80052 1.0978,-1.08208 2.35882,-1.89939 3.78248,-2.46589 1.42367,-0.56504 2.94277,-0.84873 4.57099,-0.84873 1.57758,0 3.12229,0.2639 4.62277,0.79257 1.50019,0.52868 2.92298,1.30874 4.26315,2.3399 v -2.87439 c -1.35268,-0.81236 -2.78275,-1.43501 -4.28788,-1.86884 -1.51358,-0.43382 -3.00795,-0.65407 -4.48282,-0.65407 -1.99337,0 -3.8977,0.35206 -5.71155,1.04978 -1.81442,0.6986 -3.37222,1.6867 -4.67456,2.95121 -1.33871,1.30204 -2.35329,2.81154 -3.04432,4.52937 -0.68608,1.72307 -1.03174,3.61111 -1.03174,5.66208 0,2.01345 0.35206,3.89392 1.06317,5.63648 0.70587,1.74954 1.72539,3.25206 3.05159,4.51657 1.28895,1.24037 2.84035,2.21537 4.66816,2.91222 1.82024,0.6986 3.71148,1.05066 5.67925,1.05066 1.75012,0 3.37251,-0.2383 4.8727,-0.70994 1.49379,-0.47281 2.85869,-1.18275 4.08363,-2.12634 z m 9.73407,-22.04343 v 26.98073 h 2.49993 v -26.98073 z m 13.67629,0 v 26.98073 h 13.61693 v -2.30208 h -11.11613 v -8.4422 h 11.11613 v -2.30295 h -11.11613 v -11.63084 h 11.11613 v -2.30266 z m 1.35354,29.63632 4.00012,6.44796 h 2.74317 l 4.00099,-6.44796 h -1.73121 l -3.62245,4.60561 -3.66028,-4.60561 z m 22.70827,-29.63632 v 28.12624 l 19.47774,-22.57879 v 21.43328 h 2.32651 v -27.7733 l -19.45795,22.61516 v -21.82259 z m 55.07233,22.04343 c -1.36431,1.15714 -2.75655,2.00675 -4.18488,2.55928 -1.43036,0.55428 -2.93055,0.83069 -4.50755,0.83069 -3.55873,0 -6.44389,-1.10681 -8.66828,-3.31491 -2.22439,-2.21449 -3.33353,-5.09616 -3.33353,-8.64355 0,-1.78707 0.26972,-3.39055 0.81382,-4.81247 0.54525,-1.42833 1.37827,-2.69284 2.4941,-3.80052 1.09634,-1.08208 2.35969,-1.89939 3.78249,-2.46589 1.42366,-0.56504 2.94276,-0.84873 4.57185,-0.84873 1.57671,0 3.12171,0.2639 4.6219,0.79257 1.49932,0.52868 2.92298,1.30874 4.26315,2.3399 v -2.87439 c -1.35268,-0.81236 -2.78187,-1.43501 -4.28963,-1.86884 -1.5127,-0.43382 -3.0062,-0.65407 -4.48078,-0.65407 -1.99366,0 -3.89799,0.35206 -5.71155,1.04978 -1.81471,0.6986 -3.37251,1.6867 -4.67398,2.95121 -1.33958,1.30204 -2.35328,2.81154 -3.04606,4.52937 -0.68521,1.72307 -1.03174,3.61111 -1.03174,5.66208 0,2.01345 0.35293,3.89392 1.06491,5.63648 0.70412,1.74954 1.72452,3.25206 3.05159,4.51657 1.28837,1.24037 2.83977,2.21537 4.66642,2.91222 1.82111,0.6986 3.71148,1.05066 5.68041,1.05066 1.7507,0 3.37223,-0.2383 4.87183,-0.70994 1.49437,-0.47281 2.86014,-1.18275 4.08421,-2.12634 z m 9.73378,-22.04343 v 26.98073 h 2.5008 v -26.98073 z m 16.94667,11.24154 h 9.57783 l -4.6993,11.73907 z m -7.02639,-11.24154 12.07892,28.0503 11.56566,-28.0503 h -2.72514 l -3.50694,9.13993 h -11.23164 l -3.64136,-9.13993 z m 28.9479,4.53549 2.14758,1.12572 c 0.39745,-1.32619 1.08965,-2.35299 2.07105,-3.08883 0.98723,-0.72914 2.16678,-1.0943 3.5439,-1.0943 1.73877,0 3.09785,0.50307 4.071983,1.51008 0.980535,1.00614 1.468184,2.40246 1.468184,4.18314 0,1.30233 -0.326748,2.38354 -0.987227,3.24624 -0.654078,0.85455 -2.07105,1.85574 -4.23114,2.98175 -2.76965,1.44084 -4.60968,2.70506 -5.52591,3.79965 -0.91711,1.0943 -1.37334,2.40915 -1.37334,3.94484 0,1.91248 0.66136,3.47144 1.98202,4.6798 1.32125,1.20254 3.03181,1.80541 5.14156,1.80541 1.37158,0 2.57645,-0.28224 3.595974,-0.85543 1.019524,-0.57231 1.847596,-1.43414 2.487418,-2.57325 l -1.935757,-1.14405 c -0.397452,0.77366 -0.968315,1.36518 -1.698915,1.76671 -0.7306,0.40996 -1.59679,0.61043 -2.60293,0.61043 -1.35267,0 -2.42893,-0.3893 -3.23053,-1.16966 -0.80101,-0.78006 -1.19934,-1.83101 -1.19934,-3.15808 0,-1.89357 1.5901,-3.65533 4.76971,-5.29081 0.57727,-0.29591 1.01283,-0.52199 1.31456,-0.67881 2.3399,-1.27092 3.904392,-2.46589 4.692894,-3.58609 0.788501,-1.12659 1.185371,-2.58547 1.185371,-4.37865 0,-2.42225 -0.717508,-4.34084 -2.160088,-5.76276 -1.442579,-1.41523 -3.398117,-2.12604 -5.879137,-2.12604 -1.80686,0 -3.34604,0.43964 -4.63499,1.32037 -1.28168,0.87521 -2.28811,2.18977 -3.0129,3.93262"
         style="fill:#05a1e6;fill-opacity:1;fill-rule:nonzero;stroke:none;stroke-width:2.9096"
         id="path444" /><path
         d="m -34.225975,264.90219 11.806285,26.38251 11.304379,-26.38251 h -2.663157 l -3.429255,8.59728 h -10.977049 l -3.559605,-8.59728 z m 6.866948,10.57436 h 9.364257 l -4.595422,11.03931 z"
         style="fill:#05a1e6;fill-opacity:1;fill-rule:nonzero;stroke:none;stroke-width:2.9096"
         id="path446" /><path
         d="m -43.596343,264.90044 v 25.37899 h 2.442901 v -25.37899 z"
         style="fill:#05a1e6;fill-opacity:1;fill-rule:nonzero;stroke:none;stroke-width:2.9096"
         id="path448" /><path
         d="m -56.181528,283.90129 c -1.083535,1.59097 -2.424861,2.79846 -4.017285,3.621 -1.590096,0.82225 -3.383283,1.23047 -5.375195,1.23047 -3.33353,0 -6.040622,-1.06491 -8.133788,-3.18863 -2.093167,-2.12459 -3.13975,-4.8826 -3.13975,-8.26676 0,-1.51415 0.276994,-2.94015 0.833601,-4.28293 0.55777,-1.34423 1.373331,-2.53368 2.432426,-3.57444 1.077134,-1.02447 2.286073,-1.79901 3.614887,-2.31342 1.334343,-0.51559 2.800781,-0.76959 4.392624,-0.76959 3.007071,0 5.457537,0.83971 7.34965,2.51476 1.886294,1.67506 2.858682,3.86308 2.907273,6.56755 h -9.267077 v 1.99424 h 11.950019 v -0.27874 c 0,-4.04143 -1.171987,-7.20591 -3.509269,-9.49635 -2.337573,-2.28956 -5.551517,-3.43187 -9.64998,-3.43187 -4.07926,0 -7.374964,1.22465 -9.899624,3.67424 -2.519714,2.45047 -3.778989,5.66296 -3.778989,9.64009 0,1.82752 0.319183,3.54971 0.95173,5.17705 0.640112,1.62065 1.554599,3.035 2.757137,4.23667 1.296518,1.30728 2.76383,2.28374 4.393497,2.9288 1.634904,0.64506 3.458351,0.97006 5.463356,0.97006 2.725714,0 5.062414,-0.46786 7.012137,-1.39631 1.941576,-0.92875 3.44584,-2.29626 4.498242,-4.10079 z"
         style="fill:#05a1e6;fill-opacity:1;fill-rule:nonzero;stroke:none;stroke-width:2.9096"
         id="path450" /><path
         d="m -87.50192,277.54091 c 0,-1.79493 -0.364573,-3.4921 -1.082081,-5.10548 -0.721871,-1.6125 -1.762635,-3.04926 -3.123455,-4.31028 -1.384097,-1.27091 -2.941897,-2.23515 -4.686494,-2.90553 -1.73674,-0.66077 -3.578517,-0.99217 -5.50845,-0.99217 -1.93663,0 -3.77085,0.3314 -5.5006,0.99217 -1.73762,0.67038 -3.29164,1.63462 -4.66235,2.90553 -1.37071,1.28342 -2.41322,2.72833 -3.12753,4.32861 -0.72071,1.59912 -1.07713,3.29222 -1.07713,5.08715 0,1.8153 0.35642,3.52585 1.07713,5.14243 0.71431,1.60988 1.75682,3.05886 3.12753,4.34141 1.34686,1.25375 2.88836,2.21362 4.6123,2.85694 1.72947,0.64826 3.57677,0.96918 5.55065,0.96918 1.981724,0 3.839213,-0.32092 5.575371,-0.9782 1.732085,-0.65146 3.275046,-1.60494 4.619573,-2.84792 1.37304,-1.28255 2.414095,-2.73153 3.13393,-4.34141 0.71518,-1.61658 1.071606,-3.32713 1.071606,-5.14243 z m -14.40048,-11.24997 c 1.59096,0 3.095228,0.27728 4.519768,0.83622 1.421631,0.54846 2.698654,1.36024 3.840091,2.42573 1.115831,1.07044 1.967762,2.29626 2.563358,3.66115 0.594722,1.37333 0.889755,2.81009 0.889755,4.32687 0,1.52579 -0.295033,2.96575 -0.883354,4.3225 -0.591231,1.35849 -1.442289,2.58227 -2.569759,3.66377 -1.116705,1.06462 -2.386164,1.87785 -3.815359,2.42893 -1.421922,0.55486 -2.93957,0.83215 -4.5445,0.83215 -1.59679,0 -3.09466,-0.27729 -4.50319,-0.83215 -1.41058,-0.55108 -2.68382,-1.36431 -3.8238,-2.42893 -1.12747,-1.09372 -1.97853,-2.31953 -2.5683,-3.66377 -0.58716,-1.34598 -0.88249,-2.78361 -0.88249,-4.3225 0,-1.5258 0.29533,-2.96518 0.88249,-4.32687 0.58977,-1.35587 1.44083,-2.57994 2.5683,-3.66115 1.12834,-1.07713 2.38616,-1.88542 3.78394,-2.43708 1.39719,-0.55021 2.91396,-0.82487 4.54305,-0.82487"
         style="fill:#05a1e6;fill-opacity:1;fill-rule:nonzero;stroke:none;stroke-width:2.9096"
         id="path452" /><path
         d="m -133.09681,264.90044 v 25.37899 h 2.44377 v -23.2125 h 9.21092 v -2.16649 z"
         style="fill:#05a1e6;fill-opacity:1;fill-rule:nonzero;stroke:none;stroke-width:2.9096"
         id="path454" /><path
         d="m -142.39124,277.54091 c 0,-1.79493 -0.36283,-3.4921 -1.08615,-5.10548 -0.71838,-1.6125 -1.76177,-3.04926 -3.11851,-4.31028 -1.38555,-1.27091 -2.94772,-2.23515 -4.69057,-2.90553 -1.73267,-0.66077 -3.57357,-0.99217 -5.50525,-0.99217 -1.93489,0 -3.76997,0.3314 -5.50206,0.99217 -1.73528,0.67038 -3.28988,1.63462 -4.6606,2.90553 -1.3742,1.28342 -2.41322,2.72833 -3.12607,4.32861 -0.72245,1.59912 -1.08121,3.29222 -1.08121,5.08715 0,1.8153 0.35876,3.52585 1.08121,5.14243 0.71285,1.60988 1.75187,3.05886 3.12607,4.34141 1.34686,1.25375 2.88749,2.21362 4.61114,2.85694 1.72947,0.64826 3.57881,0.96918 5.55152,0.96918 1.97882,0 3.84183,-0.32092 5.57043,-0.9782 1.73703,-0.65146 3.27679,-1.60494 4.62539,-2.84792 1.37071,-1.28255 2.41089,-2.73153 3.1316,-4.34141 0.71343,-1.61658 1.07306,-3.32713 1.07306,-5.14243 z m -14.40048,-11.24997 c 1.59271,0 3.0961,0.27728 4.51657,0.83622 1.42599,0.54846 2.70447,1.36024 3.84329,2.42573 1.11438,1.07044 1.96543,2.29626 2.5619,3.66115 0.59385,1.37333 0.88801,2.81009 0.88801,4.32687 0,1.52579 -0.29416,2.96575 -0.88073,4.3225 -0.59065,1.35849 -1.44171,2.58227 -2.56918,3.66377 -1.11583,1.06462 -2.38849,1.87785 -3.81449,2.42893 -1.42686,0.55486 -2.93869,0.83215 -4.54537,0.83215 -1.59767,0 -3.09291,-0.27729 -4.50727,-0.83215 -1.40621,-0.55108 -2.68061,-1.36431 -3.8203,-2.42893 -1.12514,-1.09372 -1.98115,-2.31953 -2.57005,-3.66377 -0.5889,-1.34598 -0.88074,-2.78361 -0.88074,-4.3225 0,-1.5258 0.29184,-2.96518 0.88074,-4.32687 0.5889,-1.35587 1.44491,-2.57994 2.57005,-3.66115 1.12747,-1.07713 2.38762,-1.88542 3.78393,-2.43708 1.39894,-0.55021 2.91572,-0.82487 4.54364,-0.82487"
         style="fill:#05a1e6;fill-opacity:1;fill-rule:nonzero;stroke:none;stroke-width:2.9096"
         id="path456" /><path
         d="m -201.80993,264.90044 v 26.45612 l 19.03722,-21.2363 v 20.15917 h 2.27385 v -26.12385 l -19.01831,21.27238 v -20.52752 z"
         style="fill:#05a1e6;fill-opacity:1;fill-rule:nonzero;stroke:none;stroke-width:2.9096"
         id="path458" /><path
         d="m -210.99874,285.63512 c -1.33522,1.08878 -2.69458,1.88717 -4.09177,2.40741 -1.39719,0.5214 -2.86363,0.78123 -4.40572,0.78123 -3.47726,0 -6.29637,-1.04019 -8.4713,-3.11764 -2.17493,-2.08269 -3.25788,-4.79299 -3.25788,-8.13059 0,-1.68 0.26245,-3.1895 0.79607,-4.52646 0.53187,-1.34337 1.34598,-2.53281 2.43621,-3.57357 1.07131,-1.01778 2.30614,-1.78737 3.69752,-2.32012 1.39049,-0.53275 2.87672,-0.79839 4.46856,-0.79839 1.54063,0 3.05072,0.24819 4.51715,0.74485 1.46644,0.49725 2.85781,1.23135 4.16772,2.20199 v -2.70447 c -1.323,-0.7629 -2.71932,-1.34919 -4.19332,-1.7574 -1.47866,-0.40851 -2.93841,-0.61538 -4.37953,-0.61538 -1.94885,0 -3.81041,0.33082 -5.58265,0.9881 -1.7734,0.65728 -3.29658,1.58602 -4.56778,2.77517 -1.30961,1.22495 -2.30004,2.64512 -2.9774,4.25995 -0.67037,1.62065 -1.00846,3.39725 -1.00846,5.32573 0,1.89357 0.34449,3.66261 1.03989,5.30158 0.6887,1.64538 1.68669,3.05974 2.98234,4.24831 1.26015,1.16617 2.77634,2.08328 4.56196,2.73997 1.7798,0.65641 3.62885,0.9881 5.5521,0.9881 1.71055,0 3.29658,-0.22433 4.76243,-0.66804 1.46062,-0.44459 2.79497,-1.11263 3.99168,-2.00006 z"
         style="fill:#05a1e6;fill-opacity:1;fill-rule:nonzero;stroke:none;stroke-width:2.9096"
         id="path460" /><path
         d="m -255.77953,264.90044 v 25.37899 h 13.30997 v -2.16503 h -10.86619 v -7.94089 h 10.86619 v -2.1659 h -10.86619 v -10.94068 h 10.86619 v -2.16649 z"
         style="fill:#05a1e6;fill-opacity:1;fill-rule:nonzero;stroke:none;stroke-width:2.9096"
         id="path462" /><path
         d="m -273.59035,264.90044 v 23.21396 h -7.39999 v 2.16503 h 17.26237 v -2.16503 h -7.41861 v -23.21396 z"
         style="fill:#05a1e6;fill-opacity:1;fill-rule:nonzero;stroke:none;stroke-width:2.9096"
         id="path464" /><path
         d="m -39.969817,318.57209 c -4.295443,3.53255 -7.837881,7.21028 -10.625569,11.02157 -0.05674,0.0404 -0.3637,0.14344 -0.92118,0.30754 -0.835346,-0.41083 -1.478658,-0.69947 -1.924118,-0.86444 -0.05616,-0.32966 -0.334895,-0.78356 -0.837092,-1.35907 l -0.585703,0.18476 c -0.557479,-0.0826 -0.975589,-0.4734 -1.255201,-1.17374 -0.334022,-0.82458 -0.86357,-1.40126 -1.589515,-1.73121 l -0.502197,0.18651 c -0.558352,-0.90722 -0.919725,-1.5869 -1.087027,-2.03963 l -0.418109,0.12365 c -0.391051,-0.49405 -1.032617,-1.09197 -1.924992,-1.79231 l 0.08322,-0.49463 c -0.05616,-0.28805 -0.376212,-0.84466 -0.962496,-1.66866 -0.585703,-0.82312 -0.878408,-1.56536 -0.878408,-2.22439 0,-0.65902 0.320929,-1.26684 0.962495,-1.82286 0.640985,-0.55661 1.435888,-0.85513 2.384418,-0.89645 l 0.668917,0.12366 c 0.279613,-0.0311 0.531293,-0.11289 0.753877,-0.24819 h 1.0879 c 4.518027,0 10.375635,1.45247 17.570785,4.36789 z m 24.348699,14.72898 c 0,-0.20629 -1.199046,-1.77166 -3.598302,-4.69726 -0.892375,-0.49405 -2.565104,-2.14176 -5.01877,-4.94283 l 0.08263,0.24674 -0.08263,0.24644 -1.256947,-1.11176 0.168175,-0.43207 c -0.502197,-0.32908 -1.255202,-0.80335 -2.259014,-1.42193 -0.390759,-0.12365 -0.780937,-0.28776 -1.171114,-0.49492 -0.168175,-0.57552 -0.586285,-1.0911 -1.256075,-1.54471 -1.115249,-0.12307 -1.672729,-0.51558 -1.672729,-1.1746 0,-0.41142 0.69714,-1.01923 2.091712,-1.82258 1.394571,-0.80246 2.202858,-1.5351 2.426316,-2.19383 l -0.08409,-0.24674 0.66979,-0.30842 0.41811,0.24645 c 0.390177,-0.16556 0.641858,-0.39163 0.753877,-0.68027 l -0.08496,-0.30841 c 0.05703,-0.20542 0.80916,-0.55603 2.259886,-1.05095 l 3.513634,-3.64544 c -0.110565,-0.28863 -0.249935,-0.47514 -0.417528,-0.55661 -0.725654,0.16498 -2.482471,0.88569 -5.271032,2.16329 l -0.502197,-0.062 c -4.852922,2.76063 -8.786411,5.02633 -11.797556,6.79711 0.110565,-0.0404 0.418109,-0.20629 0.919724,-0.49405 l -2.425733,-1.48302 -0.50307,-0.12453 -0.668917,0.12453 c -0.391051,-0.24732 -0.781228,-0.51529 -1.171987,-0.80334 -2.174927,-0.98897 -4.155201,-1.68902 -5.940822,-2.10131 l -0.835637,0.24819 c -0.50307,-0.0422 -0.962496,-0.1964 -1.380606,-0.46438 -0.418982,-0.26739 -0.684629,-0.40094 -0.794903,-0.40094 l -0.92147,0.43237 -1.756526,-0.43237 h -0.334022 c -0.279612,0 -0.517327,0.0719 -0.711979,0.21618 -0.195525,0.14345 -0.348861,0.21619 -0.459426,0.21619 l -0.586284,-0.43237 c -0.55748,0.28805 -1.11525,0.43237 -1.673602,0.43237 -0.05586,0 -0.167302,0 -0.334604,0 -0.390178,0 -1.059968,0.24644 -2.007625,0.74049 -5.355992,1.44258 -8.033115,3.90439 -8.033115,7.40639 0,3.20259 4.295152,8.4358 12.885165,15.67634 -1.393699,3.65533 -2.091421,6.08689 -2.091421,7.28128 0,0.81381 0.641567,1.9471 1.924992,3.38881 1.449853,1.60755 3.095232,2.84297 4.935264,3.70828 0.950275,0.48329 1.868836,0.99858 2.761501,1.53482 2.287819,0.9881 5.160467,1.66836 8.618818,2.03875 l 1.004394,-0.18563 0.668917,0.18563 c 1.449854,-0.16584 3.458351,-1.23541 6.024037,-3.21394 0.892374,-0.57668 1.812972,-1.17461 2.760629,-1.79144 0.949984,-0.61771 1.424249,-1.27761 1.424249,-1.97795 0,-0.49405 -0.223457,-0.90634 -0.670372,-1.23541 -0.613635,-0.32995 -1.199337,-0.68056 -1.756817,-1.05153 -4.072858,-2.30615 -6.499174,-3.4601 -7.279529,-3.4601 -0.05586,0 -0.08409,0.0204 -0.08409,0.062 v 0.12365 c -0.334895,-0.041 -0.640694,-0.22665 -0.919434,-0.5566 -0.446332,-0.49405 -0.725072,-0.78269 -0.837383,-0.86532 -0.725654,-0.12366 -1.757398,-0.57639 -3.096105,-1.35995 -0.111438,-0.24586 -0.195525,-0.45186 -0.250808,-0.61683 l 0.08351,-0.18563 c -0.835638,-0.28864 -1.700662,-0.86532 -2.593036,-1.73034 -1.506882,-0.49493 -2.259014,-1.05095 -2.259014,-1.66866 0,-0.32907 0.304926,-0.49405 0.919434,-0.49405 1.171987,-1.89531 1.756817,-2.82318 1.756817,-2.78187 v -0.0611 l -0.166721,-0.55573 0.334895,-0.12453 0.167593,0.0625 c 0.223458,-0.57726 0.850186,-1.34016 1.882803,-2.28694 1.030871,-0.94679 2.328262,-2.41003 3.890426,-4.38855 1.059095,-1.3585 1.89706,-2.03818 2.509822,-2.03818 0.167302,0 0.418109,0.14345 0.753004,0.43237 l 0.66979,-0.18563 c 0.11202,0.41229 0.752132,0.96831 1.924119,1.66923 1.506009,0.86532 2.984959,1.70968 4.434813,2.53368 v -0.1865 l 0.250807,-0.18534 c 0.222585,0.0832 0.474265,0.22753 0.753587,0.43295 l -0.41811,0.18563 c 0.779482,0.53507 2.007624,1.42105 3.680062,2.65734 l 0.503361,-0.18564 0.166429,0.37127 v 0.12366 h 0.167593 l 0.334895,-0.12366 c 1.561292,1.44229 3.374846,3.1927 5.439207,5.25299 z m -18.993579,14.76971 c -1.784749,-0.12366 -2.705056,-0.18534 -2.761211,-0.18534 -0.501324,0 -0.837092,0.0617 -1.004685,0.18534 h -0.167302 c -0.446333,0 -0.905468,-0.13355 -1.379733,-0.40152 -0.474264,-0.26798 -0.822544,-0.40182 -1.046874,-0.40182 l -0.334022,0.30871 c -0.223457,-0.20629 -0.501324,-0.37039 -0.837092,-0.49405 l -0.250516,0.0617 c -0.222876,-0.0823 -0.44546,-0.21589 -0.668918,-0.40152 -0.223748,-0.18563 -0.39105,-0.27874 -0.502488,-0.27874 -0.111146,0 -0.278739,0.0626 -0.502197,0.18534 -1.115831,-0.24644 -2.92793,-1.23542 -5.438624,-2.96663 -0.502197,-0.20541 -1.283134,-0.65902 -2.343102,-1.3582 1.003813,-2.14379 1.924992,-3.27621 2.760629,-3.39987 l 0.837965,0.18651 c 0.277867,0.5246 1.617156,1.54383 4.016412,3.04839 3.234894,1.98755 6.442437,3.96462 9.621758,5.91172"
         style="fill:#05a1e6;fill-opacity:1;fill-rule:nonzero;stroke:none;stroke-width:2.9096"
         id="path466" /><path
         d="M -290.14511,247.90197 H -4.5369953 v -2.02828 H -290.14511 Z"
         style="fill:#05a1e6;fill-opacity:1;fill-rule:evenodd;stroke:none;stroke-width:2.9096"
         id="path468" /><path
         d="m -279.14594,229.11527 h 4.24918 v -13.27622 c 0,-2.00995 1.07364,-3.50374 3.20899,-4.4802 2.13711,-0.97734 5.41302,-1.46469 9.81729,-1.46469 4.35072,0 7.59289,0.48735 9.72824,1.46469 2.13682,0.97646 3.20988,2.47025 3.20988,4.4802 v 13.27622 h 4.31697 V 216.4361 c 0,-2.74899 -1.42774,-4.80753 -4.28322,-6.16253 -2.85519,-1.35588 -7.17217,-2.03381 -12.97187,-2.03381 -5.81048,0 -10.13734,0.67793 -12.99253,2.03381 -2.85636,1.355 -4.28293,3.41354 -4.28293,6.16253 z m 84.40168,-20.33549 v 20.33549 h 23.50841 v -1.73529 h -19.19318 v -6.363 h 18.48382 v -1.73529 h -18.48382 v -10.50191 z m 75.85735,18.72328 v -7.5155 h 4.34898 c 4.01816,0 6.81836,0.27641 8.41166,0.82574 1.58282,0.55486 2.37947,1.48856 2.37947,2.81562 0,1.39981 -0.81876,2.38937 -2.46763,2.98322 -1.63782,0.5921 -4.4159,0.89092 -8.3235,0.89092 z m 24.515424,-18.72328 h -5.257939 l -16.667065,9.69508 h -2.59042 v -9.69508 h -4.3161 v 20.33549 h 8.72124 c 5.1465,0 8.99823,-0.46001 11.56566,-1.37566 2.55579,-0.91478 3.840091,-2.30353 3.840091,-4.16742 0,-1.58283 -1.095171,-2.82988 -3.287561,-3.73564 -2.20198,-0.90634 -5.22418,-1.36169 -9.0634,-1.36169 z m 44.490407,0 v 21.19818 l 33.624214,-17.01563 v 16.15294 h 4.017576 v -20.93254 l -33.590463,17.04386 v -16.44681 z"
         style="fill:#05a1e6;fill-opacity:1;fill-rule:nonzero;stroke:none;stroke-width:2.9096"
         id="path470" /></g></g></svg>
