<?xml version="1.0" encoding="UTF-8" standalone="no"?>
<svg
   xmlns:dc="http://purl.org/dc/elements/1.1/"
   xmlns:cc="http://creativecommons.org/ns#"
   xmlns:rdf="http://www.w3.org/1999/02/22-rdf-syntax-ns#"
   xmlns:svg="http://www.w3.org/2000/svg"
   xmlns="http://www.w3.org/2000/svg"
   xmlns:sodipodi="http://sodipodi.sourceforge.net/DTD/sodipodi-0.dtd"
   xmlns:inkscape="http://www.inkscape.org/namespaces/inkscape"
   inkscape:version="1.0 (4035a4fb49, 2020-05-01)"
   sodipodi:docname="UFRN_sem-legenda.pdf"
   viewBox="0 0 1340.4268 691.276"
   height="691.276"
   width="1340.4268"
   xml:space="preserve"
   id="svg5442"
   version="1.1"><metadata
     id="metadata5448"><rdf:RDF><cc:Work
         rdf:about=""><dc:format>image/svg+xml</dc:format><dc:type
           rdf:resource="http://purl.org/dc/dcmitype/StillImage" /><dc:title></dc:title></cc:Work></rdf:RDF></metadata><defs
     id="defs5446" /><sodipodi:namedview
     inkscape:current-layer="g5450"
     inkscape:cy="308.56952"
     inkscape:cx="594.41822"
     inkscape:zoom="0.73431289"
     showgrid="false"
     id="namedview5444"
     inkscape:window-height="480"
     inkscape:window-width="640"
     inkscape:pageshadow="2"
     inkscape:pageopacity="0"
     guidetolerance="10"
     gridtolerance="10"
     objecttolerance="10"
     borderopacity="1"
     bordercolor="#666666"
     pagecolor="#ffffff" /><g
     transform="matrix(1.3333333,0,0,-1.3333333,0,691.276)"
     inkscape:label="UFRN_sem-legenda"
     inkscape:groupmode="layer"
     id="g5450"><g
       transform="scale(0.1)"
       id="g5452"><path
         id="path5454"
         style="fill:#05a1e6;fill-opacity:1;fill-rule:nonzero;stroke:none"
         d="m 3403.98,2559.82 c -25.76,-245.05 -109.37,-430.86 -250.77,-557.36 -141.44,-126.56 -379.54,-189.79 -714.26,-189.79 -339.57,0 -569.89,60.05 -691,180.17 -121.11,120.12 -168.1,309.1 -141,566.98 l 93.69,891.32 h 511.72 l -93.69,-891.32 c -14.47,-137.75 7.79,-245.88 66.82,-324.33 59,-78.49 146.96,-117.71 263.91,-117.71 112.09,0 210.01,36.41 293.77,109.29 83.72,72.87 133.43,183.8 149.09,332.75 l 93.69,891.32 h 511.72" /><path
         id="path5456"
         style="fill:#05a1e6;fill-opacity:1;fill-rule:nonzero;stroke:none"
         d="m 5953.1,2968.23 c 5.39,51.25 -18.04,95.27 -70.21,132.15 -52.19,36.83 -109.5,55.24 -171.95,55.24 h -341.15 l -40.93,-389.19 h 345.97 c 73.62,0 136.75,17.61 189.34,52.87 52.53,35.19 82.19,84.86 88.93,148.93 M 6395.44,1851.1 H 5847.7 l 10.04,461.27 c -4.84,30.41 -15.86,58.86 -33.08,85.28 -17.27,26.43 -43.29,49.27 -78.11,68.48 -51.28,0 -136.76,1.57 -256.55,4.81 -119.78,3.18 -183.71,4.79 -191.69,4.79 l -65.64,-624.63 h -511.72 l 168.17,1600.05 h 1059.46 c 144.14,0 274.42,-36.88 390.79,-110.52 116.41,-73.7 167.42,-178.62 153.13,-314.72 -9.75,-92.92 -50.95,-172.2 -123.5,-237.85 -72.58,-65.7 -162.37,-112.13 -269.29,-139.34 l -2.03,-19.23 c 41.13,-4.8 81.76,-14.41 121.88,-28.82 40.12,-14.41 80.64,-29.89 109.04,-60.07 61.72,-65.6 55.33,-166.58 58.56,-196.99" /><path
         id="path5458"
         style="fill:#05a1e6;fill-opacity:1;fill-rule:nonzero;stroke:none"
         d="M 8285.02,1851.1 H 7590.7 L 6976.64,2934.6 6862.77,1851.1 h -478.09 l 168.16,1600.04 h 727.95 l 582.94,-1059.48 111.35,1059.48 h 478.1" /><path
         id="path5460"
         style="fill:#254aa5;fill-opacity:1;fill-rule:nonzero;stroke:none"
         d="M 4903.07,3584.54 H 3510.62 l -14.03,-133.39 h 1392.46 z" /><path
         id="path5462"
         style="fill:#254aa5;fill-opacity:1;fill-rule:nonzero;stroke:none"
         d="m 4855.45,3131.6 h -881.6 l -35.39,-336.33 h 803.42 l -34.14,-324.32 h -803.41 l -65.24,-619.85 h -510.74 l -28.06,-266.86 h 1392.46" /></g></g></svg>
