<?xml version="1.0" encoding="UTF-8" standalone="no"?>
<svg
   xmlns:dc="http://purl.org/dc/elements/1.1/"
   xmlns:cc="http://creativecommons.org/ns#"
   xmlns:rdf="http://www.w3.org/1999/02/22-rdf-syntax-ns#"
   xmlns:svg="http://www.w3.org/2000/svg"
   xmlns="http://www.w3.org/2000/svg"
   xmlns:sodipodi="http://sodipodi.sourceforge.net/DTD/sodipodi-0.dtd"
   xmlns:inkscape="http://www.inkscape.org/namespaces/inkscape"
   inkscape:version="1.0 (4035a4fb49, 2020-05-01)"
   sodipodi:docname="UFRN_negativo.svg"
   viewBox="0 0 1340.4268 691.276"
   height="691.276"
   width="1340.4268"
   xml:space="preserve"
   id="svg5442"
   version="1.1"><metadata
     id="metadata5448"><rdf:RDF><cc:Work
         rdf:about=""><dc:format>image/svg+xml</dc:format><dc:type
           rdf:resource="http://purl.org/dc/dcmitype/StillImage" /><dc:title></dc:title></cc:Work></rdf:RDF></metadata><defs
     id="defs5446" /><sodipodi:namedview
     lock-margins="true"
     inkscape:current-layer="g5450"
     inkscape:cy="403.04336"
     inkscape:cx="472.16553"
     inkscape:zoom="0.36715644"
     showgrid="false"
     id="namedview5444"
     inkscape:window-height="480"
     inkscape:window-width="640"
     inkscape:pageshadow="2"
     inkscape:pageopacity="0"
     guidetolerance="10"
     gridtolerance="10"
     objecttolerance="10"
     borderopacity="1"
     bordercolor="#666666"
     pagecolor="#ffffff" /><g
     transform="matrix(1.3333333,0,0,-1.3333333,0,691.276)"
     inkscape:label="UFRN_sem-legenda"
     inkscape:groupmode="layer"
     id="g5450"><path
       d="m 340.398,255.982 c -2.576,-24.505 -10.937,-43.086 -25.077,-55.736 -14.144,-12.656 -37.954,-18.979 -71.426,-18.979 -33.957,0 -56.989,6.005 -69.1,18.017 -12.111,12.012 -16.81,30.91 -14.1,56.698 l 9.369,89.132 h 51.172 l -9.369,-89.132 c -1.447,-13.775 0.779,-24.588 6.682,-32.433 5.9,-7.849 14.696,-11.771 26.391,-11.771 11.209,0 21.001,3.641 29.377,10.929 8.372,7.287 13.343,18.38 14.909,33.275 l 9.369,89.132 h 51.172"
       style="fill:#fffff2;fill-opacity:1;fill-rule:nonzero;stroke:none;stroke-width:0.1"
       id="path5454" /><path
       d="m 595.31,296.823 c 0.539,5.125 -1.804,9.527 -7.021,13.215 -5.219,3.683 -10.95,5.524 -17.195,5.524 h -34.115 l -4.093,-38.919 h 34.597 c 7.362,0 13.675,1.761 18.934,5.287 5.253,3.519 8.219,8.486 8.893,14.893 M 639.544,185.11 H 584.77 l 1.004,46.127 c -0.484,3.041 -1.586,5.886 -3.308,8.528 -1.727,2.643 -4.329,4.927 -7.811,6.848 -5.128,0 -13.676,0.157 -25.655,0.481 -11.978,0.318 -18.371,0.479 -19.169,0.479 l -6.564,-62.463 h -51.172 l 16.817,160.005 h 105.946 c 14.414,0 27.442,-3.688 39.079,-11.052 11.641,-7.37 16.742,-17.862 15.313,-31.472 -0.975,-9.292 -5.095,-17.22 -12.35,-23.785 -7.258,-6.57 -16.237,-11.213 -26.929,-13.934 l -0.203,-1.923 c 4.113,-0.48 8.176,-1.441 12.188,-2.882 4.012,-1.441 8.064,-2.989 10.904,-6.007 6.172,-6.56 5.533,-16.658 5.856,-19.699"
       style="fill:#fffff2;fill-opacity:1;fill-rule:nonzero;stroke:none;stroke-width:0.1"
       id="path5456" /><path
       d="M 828.502,185.11 H 759.07 L 697.664,293.46 686.277,185.11 h -47.809 l 16.816,160.004 h 72.795 l 58.294,-105.948 11.135,105.948 h 47.81"
       style="fill:#fffff2;fill-opacity:1;fill-rule:nonzero;stroke:none;stroke-width:0.1"
       id="path5458" /><path
       d="M 490.307,358.454 H 351.062 l -1.403,-13.339 h 139.246 z"
       style="fill:#fffff2;fill-opacity:1;fill-rule:nonzero;stroke:none;stroke-width:0.1"
       id="path5460" /><path
       d="m 485.545,313.16 h -88.16 l -3.539,-33.633 h 80.342 l -3.414,-32.432 h -80.341 l -6.524,-61.985 h -51.074 l -2.806,-26.686 h 139.246"
       style="fill:#fffff2;fill-opacity:1;fill-rule:nonzero;stroke:none;stroke-width:0.1"
       id="path5462" /></g></svg>
